<svg width="101" height="31" viewBox="0 0 101 31" fill="none" xmlns="http://www.w3.org/2000/svg">
<path d="M33.5753 14.1293H32.0241C31.9645 13.7978 31.8535 13.5062 31.6911 13.2543C31.5286 13.0024 31.3298 12.7886 31.0945 12.6129C30.8591 12.4373 30.5956 12.3047 30.304 12.2152C30.0156 12.1257 29.709 12.081 29.3842 12.081C28.7976 12.081 28.2723 12.2285 27.8082 12.5234C27.3475 12.8184 26.983 13.2509 26.7145 13.821C26.4493 14.3911 26.3168 15.0871 26.3168 15.9091C26.3168 16.7377 26.4493 17.437 26.7145 18.0071C26.983 18.5772 27.3492 19.008 27.8132 19.2997C28.2772 19.5914 28.7992 19.7372 29.3793 19.7372C29.7008 19.7372 30.0057 19.6941 30.294 19.608C30.5857 19.5185 30.8492 19.3875 31.0845 19.2152C31.3198 19.0429 31.5187 18.8324 31.6811 18.5838C31.8468 18.3319 31.9612 18.0436 32.0241 17.7188L33.5753 17.7237C33.4924 18.2242 33.3317 18.6849 33.093 19.1058C32.8577 19.5234 32.5545 19.8847 32.1832 20.1896C31.8153 20.4912 31.3944 20.7249 30.9205 20.8906C30.4465 21.0563 29.9295 21.1392 29.3693 21.1392C28.4877 21.1392 27.7022 20.9304 27.0128 20.5128C26.3234 20.0919 25.7798 19.4903 25.3821 18.7081C24.9877 17.9259 24.7905 16.9929 24.7905 15.9091C24.7905 14.822 24.9893 13.889 25.3871 13.1101C25.7848 12.3279 26.3284 11.728 27.0178 11.3104C27.7071 10.8894 28.491 10.679 29.3693 10.679C29.9096 10.679 30.4134 10.7569 30.8807 10.9126C31.3513 11.0651 31.7739 11.2905 32.1484 11.5888C32.523 11.8838 32.8329 12.245 33.0781 12.6726C33.3234 13.0968 33.4891 13.5824 33.5753 14.1293ZM38.5108 21.1541C37.7949 21.1541 37.1702 20.9901 36.6365 20.6619C36.1029 20.3338 35.6886 19.8748 35.3936 19.2848C35.0987 18.6948 34.9512 18.0054 34.9512 17.2166C34.9512 16.4245 35.0987 15.7318 35.3936 15.1385C35.6886 14.5452 36.1029 14.0845 36.6365 13.7564C37.1702 13.4283 37.7949 13.2642 38.5108 13.2642C39.2267 13.2642 39.8515 13.4283 40.3851 13.7564C40.9187 14.0845 41.333 14.5452 41.628 15.1385C41.923 15.7318 42.0705 16.4245 42.0705 17.2166C42.0705 18.0054 41.923 18.6948 41.628 19.2848C41.333 19.8748 40.9187 20.3338 40.3851 20.6619C39.8515 20.9901 39.2267 21.1541 38.5108 21.1541ZM38.5158 19.9062C38.9798 19.9062 39.3643 19.7836 39.6692 19.5384C39.9741 19.2931 40.1995 18.9666 40.3453 18.5589C40.4945 18.1513 40.5691 17.7022 40.5691 17.2116C40.5691 16.7244 40.4945 16.277 40.3453 15.8693C40.1995 15.4583 39.9741 15.1286 39.6692 14.88C39.3643 14.6314 38.9798 14.5071 38.5158 14.5071C38.0485 14.5071 37.6607 14.6314 37.3525 14.88C37.0475 15.1286 36.8205 15.4583 36.6713 15.8693C36.5255 16.277 36.4526 16.7244 36.4526 17.2116C36.4526 17.7022 36.5255 18.1513 36.6713 18.5589C36.8205 18.9666 37.0475 19.2931 37.3525 19.5384C37.6607 19.7836 38.0485 19.9062 38.5158 19.9062ZM45.2163 16.4659V21H43.7298V13.3636H45.1566V14.6065H45.2511C45.4267 14.2022 45.7018 13.8774 46.0763 13.6321C46.4542 13.3868 46.9298 13.2642 47.5032 13.2642C48.0236 13.2642 48.4793 13.3736 48.8704 13.5923C49.2615 13.8078 49.5647 14.1293 49.7802 14.5568C49.9956 14.9844 50.1033 15.513 50.1033 16.1428V21H48.6168V16.3217C48.6168 15.7682 48.4727 15.3357 48.1843 15.0241C47.896 14.7093 47.4999 14.5518 46.9961 14.5518C46.6514 14.5518 46.3448 14.6264 46.0763 14.7756C45.8112 14.9247 45.6007 15.1435 45.445 15.4318C45.2925 15.7169 45.2163 16.0616 45.2163 16.4659ZM55.6616 13.3636V14.5568H51.4904V13.3636H55.6616ZM52.609 11.5341H54.0955V18.7578C54.0955 19.0462 54.1386 19.2633 54.2248 19.4091C54.311 19.5516 54.422 19.6494 54.5579 19.7024C54.6971 19.7521 54.8479 19.777 55.0103 19.777C55.1296 19.777 55.234 19.7687 55.3235 19.7521C55.413 19.7356 55.4826 19.7223 55.5323 19.7124L55.8008 20.9403C55.7146 20.9735 55.592 21.0066 55.4329 21.0398C55.2738 21.0762 55.0749 21.0961 54.8363 21.0994C54.4452 21.1061 54.0806 21.0365 53.7425 20.8906C53.4045 20.7448 53.131 20.5194 52.9222 20.2145C52.7134 19.9096 52.609 19.5268 52.609 19.0661V11.5341ZM59.5282 21.169C59.0443 21.169 58.6068 21.0795 58.2157 20.9006C57.8246 20.7183 57.5147 20.4548 57.286 20.1101C57.0607 19.7654 56.948 19.3428 56.948 18.8423C56.948 18.4115 57.0308 18.0568 57.1966 17.7784C57.3623 17.5 57.586 17.2796 57.8677 17.1172C58.1494 16.9548 58.4643 16.8321 58.8123 16.7493C59.1603 16.6664 59.515 16.6035 59.8762 16.5604C60.3336 16.5073 60.7048 16.4643 60.9899 16.4311C61.2749 16.3946 61.4821 16.3366 61.6113 16.2571C61.7406 16.1776 61.8052 16.0483 61.8052 15.8693V15.8345C61.8052 15.4003 61.6826 15.0639 61.4373 14.8253C61.1954 14.5866 60.8341 14.4673 60.3535 14.4673C59.853 14.4673 59.4586 14.5784 59.1703 14.8004C58.8852 15.0192 58.688 15.2628 58.5787 15.5312L57.1816 15.2131C57.3474 14.7491 57.5893 14.3745 57.9075 14.0895C58.229 13.8011 58.5985 13.5923 59.0162 13.4631C59.4338 13.3305 59.8729 13.2642 60.3336 13.2642C60.6386 13.2642 60.9617 13.3007 61.3031 13.3736C61.6478 13.4432 61.9693 13.5724 62.2676 13.7614C62.5692 13.9503 62.8161 14.2204 63.0083 14.5717C63.2006 14.9197 63.2967 15.3722 63.2967 15.929V21H61.845V19.956H61.7853C61.6892 20.1482 61.545 20.3371 61.3528 20.5227C61.1606 20.7083 60.9136 20.8625 60.612 20.9851C60.3104 21.1077 59.9492 21.169 59.5282 21.169ZM59.8514 19.9759C60.2624 19.9759 60.6137 19.8946 60.9054 19.7322C61.2003 19.5698 61.4241 19.3577 61.5765 19.0959C61.7323 18.8307 61.8102 18.5473 61.8102 18.2457V17.2614C61.7572 17.3144 61.6544 17.3641 61.502 17.4105C61.3528 17.4536 61.1821 17.4917 60.9899 17.5249C60.7976 17.5547 60.6104 17.5829 60.4281 17.6094C60.2458 17.6326 60.0933 17.6525 59.9707 17.669C59.6824 17.7055 59.4189 17.7668 59.1802 17.853C58.9449 17.9392 58.756 18.0634 58.6135 18.2259C58.4743 18.3849 58.4047 18.5971 58.4047 18.8622C58.4047 19.2301 58.5405 19.5085 58.8123 19.6974C59.0841 19.883 59.4305 19.9759 59.8514 19.9759ZM68.4933 21.1541C67.7541 21.1541 67.1178 20.9867 66.5842 20.652C66.0539 20.3139 65.6462 19.8482 65.3612 19.255C65.0761 18.6617 64.9336 17.9822 64.9336 17.2166C64.9336 16.4411 65.0794 15.7566 65.3711 15.1634C65.6628 14.5668 66.0737 14.1011 66.604 13.7663C67.1344 13.4316 67.7591 13.2642 68.4783 13.2642C69.0584 13.2642 69.5754 13.3719 70.0295 13.5874C70.4835 13.7995 70.8498 14.0978 71.1282 14.4822C71.4099 14.8667 71.5773 15.3158 71.6303 15.8295H70.1836C70.104 15.4716 69.9218 15.1634 69.6367 14.9048C69.355 14.6463 68.9772 14.517 68.5032 14.517C68.0889 14.517 67.726 14.6264 67.4144 14.8452C67.1062 15.0606 66.8659 15.3688 66.6935 15.7699C66.5212 16.1676 66.435 16.6383 66.435 17.1818C66.435 17.7386 66.5195 18.2192 66.6886 18.6236C66.8576 19.0279 67.0962 19.3411 67.4045 19.5632C67.716 19.7853 68.0823 19.8963 68.5032 19.8963C68.7849 19.8963 69.0401 19.8449 69.2688 19.7422C69.5008 19.6361 69.6947 19.4853 69.8505 19.2898C70.0096 19.0942 70.1206 18.8589 70.1836 18.5838H71.6303C71.5773 19.0777 71.4165 19.5185 71.1481 19.9062C70.8796 20.294 70.52 20.599 70.0692 20.821C69.6218 21.0431 69.0965 21.1541 68.4933 21.1541ZM76.7846 13.3636V14.5568H72.6135V13.3636H76.7846ZM73.7321 11.5341H75.2186V18.7578C75.2186 19.0462 75.2617 19.2633 75.3478 19.4091C75.434 19.5516 75.545 19.6494 75.6809 19.7024C75.8201 19.7521 75.9709 19.777 76.1333 19.777C76.2527 19.777 76.3571 19.7687 76.4466 19.7521C76.536 19.7356 76.6056 19.7223 76.6554 19.7124L76.9238 20.9403C76.8377 20.9735 76.715 21.0066 76.5559 21.0398C76.3968 21.0762 76.198 21.0961 75.9593 21.0994C75.5682 21.1061 75.2037 21.0365 74.8656 20.8906C74.5275 20.7448 74.2541 20.5194 74.0453 20.2145C73.8365 19.9096 73.7321 19.5268 73.7321 19.0661V11.5341Z" fill="white"/>
<rect x="0.5" y="0.5" width="100" height="30" stroke="white"/>
</svg>
