<svg width="213" height="69" viewBox="0 0 213 69" fill="none" xmlns="http://www.w3.org/2000/svg">
<g filter="url(#filter0_d_105_2)">
<path d="M4 0H189C200.046 0 209 8.95431 209 20V61H24C12.9543 61 4 52.0457 4 41V0Z" fill="#1B1A1A"/>
<path d="M36.5 13.4375C27.0775 13.4375 19.4375 21.0775 19.4375 30.5C19.4375 39.9225 27.0775 47.5625 36.5 47.5625C45.9225 47.5625 53.5625 39.9225 53.5625 30.5C53.5625 21.0775 45.9225 13.4375 36.5 13.4375ZM41.9882 30.7628L33.6702 36.8146C33.6246 36.8474 33.5709 36.867 33.5149 36.8712C33.4589 36.8754 33.4028 36.8641 33.3528 36.8385C33.3028 36.8129 33.2609 36.7741 33.2315 36.7262C33.2022 36.6783 33.1866 36.6232 33.1865 36.5671V24.471C33.1863 24.4147 33.2017 24.3595 33.231 24.3115C33.2603 24.2634 33.3023 24.2244 33.3524 24.1988C33.4025 24.1731 33.4587 24.1619 33.5148 24.1662C33.5709 24.1706 33.6247 24.1904 33.6702 24.2234L41.9882 30.2715C42.0275 30.2993 42.0595 30.3361 42.0817 30.3788C42.1038 30.4216 42.1153 30.469 42.1153 30.5171C42.1153 30.5653 42.1038 30.6127 42.0817 30.6554C42.0595 30.6982 42.0275 30.735 41.9882 30.7628Z" fill="#FFFCFC"/>
<path d="M71.18 35L66.54 21H69.24L73.38 33.66H72.04L76.34 21H78.74L82.92 33.66H81.62L85.86 21H88.34L83.7 35H80.94L77.12 23.58H77.84L73.96 35H71.18ZM95.9973 35V32.84L95.8573 32.38V28.6C95.8573 27.8667 95.6373 27.3 95.1973 26.9C94.7573 26.4867 94.0907 26.28 93.1973 26.28C92.5973 26.28 92.004 26.3733 91.4173 26.56C90.844 26.7467 90.3573 27.0067 89.9573 27.34L88.9773 25.52C89.5507 25.08 90.2307 24.7533 91.0173 24.54C91.8173 24.3133 92.644 24.2 93.4973 24.2C95.044 24.2 96.2373 24.5733 97.0773 25.32C97.9307 26.0533 98.3573 27.1933 98.3573 28.74V35H95.9973ZM92.6373 35.14C91.8373 35.14 91.1373 35.0067 90.5373 34.74C89.9373 34.46 89.4707 34.08 89.1373 33.6C88.8173 33.1067 88.6573 32.5533 88.6573 31.94C88.6573 31.34 88.7973 30.8 89.0773 30.32C89.3707 29.84 89.844 29.46 90.4973 29.18C91.1507 28.9 92.0173 28.76 93.0973 28.76H96.1973V30.42H93.2773C92.424 30.42 91.8507 30.56 91.5573 30.84C91.264 31.1067 91.1173 31.44 91.1173 31.84C91.1173 32.2933 91.2973 32.6533 91.6573 32.92C92.0173 33.1867 92.5173 33.32 93.1573 33.32C93.7707 33.32 94.3173 33.18 94.7973 32.9C95.2907 32.62 95.644 32.2067 95.8573 31.66L96.2773 33.16C96.0373 33.7867 95.604 34.2733 94.9773 34.62C94.364 34.9667 93.584 35.14 92.6373 35.14ZM105.586 35.14C104.412 35.14 103.506 34.84 102.866 34.24C102.226 33.6267 101.906 32.7267 101.906 31.54V21.96H104.406V31.48C104.406 31.9867 104.532 32.38 104.786 32.66C105.052 32.94 105.419 33.08 105.886 33.08C106.446 33.08 106.912 32.9333 107.286 32.64L107.986 34.42C107.692 34.66 107.332 34.84 106.906 34.96C106.479 35.08 106.039 35.14 105.586 35.14ZM100.146 26.4V24.4H107.266V26.4H100.146ZM114.591 35.14C113.471 35.14 112.471 34.9067 111.591 34.44C110.724 33.96 110.044 33.3067 109.551 32.48C109.057 31.6533 108.811 30.7133 108.811 29.66C108.811 28.5933 109.057 27.6533 109.551 26.84C110.044 26.0133 110.724 25.3667 111.591 24.9C112.471 24.4333 113.471 24.2 114.591 24.2C115.631 24.2 116.544 24.4133 117.331 24.84C118.131 25.2533 118.737 25.8667 119.151 26.68L117.231 27.8C116.911 27.2933 116.517 26.92 116.051 26.68C115.597 26.44 115.104 26.32 114.571 26.32C113.957 26.32 113.404 26.4533 112.911 26.72C112.417 26.9867 112.031 27.3733 111.751 27.88C111.471 28.3733 111.331 28.9667 111.331 29.66C111.331 30.3533 111.471 30.9533 111.751 31.46C112.031 31.9533 112.417 32.3333 112.911 32.6C113.404 32.8667 113.957 33 114.571 33C115.104 33 115.597 32.88 116.051 32.64C116.517 32.4 116.911 32.0267 117.231 31.52L119.151 32.64C118.737 33.44 118.131 34.06 117.331 34.5C116.544 34.9267 115.631 35.14 114.591 35.14ZM127.274 24.2C128.128 24.2 128.888 24.3667 129.554 24.7C130.234 25.0333 130.768 25.5467 131.154 26.24C131.541 26.92 131.734 27.8 131.734 28.88V35H129.234V29.2C129.234 28.2533 129.008 27.5467 128.554 27.08C128.114 26.6133 127.494 26.38 126.694 26.38C126.108 26.38 125.588 26.5 125.134 26.74C124.681 26.98 124.328 27.34 124.074 27.82C123.834 28.2867 123.714 28.88 123.714 29.6V35H121.214V20.16H123.714V27.2L123.174 26.32C123.548 25.64 124.088 25.12 124.794 24.76C125.514 24.3867 126.341 24.2 127.274 24.2ZM146.493 24.2C147.346 24.2 148.106 24.3667 148.773 24.7C149.453 25.0333 149.986 25.5467 150.373 26.24C150.76 26.92 150.953 27.8 150.953 28.88V35H148.453V29.2C148.453 28.2533 148.226 27.5467 147.773 27.08C147.333 26.6133 146.713 26.38 145.913 26.38C145.326 26.38 144.806 26.5 144.353 26.74C143.9 26.98 143.546 27.34 143.293 27.82C143.053 28.2867 142.933 28.88 142.933 29.6V35H140.433V24.32H142.813V27.2L142.393 26.32C142.766 25.64 143.306 25.12 144.013 24.76C144.733 24.3867 145.56 24.2 146.493 24.2ZM158.944 35.14C157.851 35.14 156.877 34.9067 156.024 34.44C155.171 33.96 154.497 33.3067 154.004 32.48C153.511 31.6533 153.264 30.7133 153.264 29.66C153.264 28.5933 153.511 27.6533 154.004 26.84C154.497 26.0133 155.171 25.3667 156.024 24.9C156.877 24.4333 157.851 24.2 158.944 24.2C160.051 24.2 161.031 24.4333 161.884 24.9C162.751 25.3667 163.424 26.0067 163.904 26.82C164.397 27.6333 164.644 28.58 164.644 29.66C164.644 30.7133 164.397 31.6533 163.904 32.48C163.424 33.3067 162.751 33.96 161.884 34.44C161.031 34.9067 160.051 35.14 158.944 35.14ZM158.944 33C159.557 33 160.104 32.8667 160.584 32.6C161.064 32.3333 161.437 31.9467 161.704 31.44C161.984 30.9333 162.124 30.34 162.124 29.66C162.124 28.9667 161.984 28.3733 161.704 27.88C161.437 27.3733 161.064 26.9867 160.584 26.72C160.104 26.4533 159.564 26.32 158.964 26.32C158.351 26.32 157.804 26.4533 157.324 26.72C156.857 26.9867 156.484 27.3733 156.204 27.88C155.924 28.3733 155.784 28.9667 155.784 29.66C155.784 30.34 155.924 30.9333 156.204 31.44C156.484 31.9467 156.857 32.3333 157.324 32.6C157.804 32.8667 158.344 33 158.944 33ZM169.102 35L165.182 24.32H167.542L170.902 33.74H169.782L173.302 24.32H175.402L178.822 33.74H177.722L181.182 24.32H183.402L179.462 35H177.062L173.942 26.66H174.682L171.502 35H169.102Z" fill="white"/>
</g>
<defs>
<filter id="filter0_d_105_2" x="0" y="0" width="213" height="69" filterUnits="userSpaceOnUse" color-interpolation-filters="sRGB">
<feFlood flood-opacity="0" result="BackgroundImageFix"/>
<feColorMatrix in="SourceAlpha" type="matrix" values="0 0 0 0 0 0 0 0 0 0 0 0 0 0 0 0 0 0 127 0" result="hardAlpha"/>
<feOffset dy="4"/>
<feGaussianBlur stdDeviation="2"/>
<feComposite in2="hardAlpha" operator="out"/>
<feColorMatrix type="matrix" values="0 0 0 0 0 0 0 0 0 0 0 0 0 0 0 0 0 0 0.25 0"/>
<feBlend mode="normal" in2="BackgroundImageFix" result="effect1_dropShadow_105_2"/>
<feBlend mode="normal" in="SourceGraphic" in2="effect1_dropShadow_105_2" result="shape"/>
</filter>
</defs>
</svg>
