<svg width="147" height="139" viewBox="0 0 147 139" fill="none" xmlns="http://www.w3.org/2000/svg">
<rect width="147" height="139" rx="20" fill="#00E6FF"/>
<path d="M52.695 106.53C53.795 106.53 54.76 106.745 55.59 107.175C56.43 107.605 57.075 108.22 57.525 109.02C57.985 109.81 58.215 110.73 58.215 111.78C58.215 112.83 57.985 113.75 57.525 114.54C57.075 115.32 56.43 115.925 55.59 116.355C54.76 116.785 53.795 117 52.695 117H49.035V106.53H52.695ZM52.62 115.215C53.72 115.215 54.57 114.915 55.17 114.315C55.77 113.715 56.07 112.87 56.07 111.78C56.07 110.69 55.77 109.84 55.17 109.23C54.57 108.61 53.72 108.3 52.62 108.3H51.135V115.215H52.62ZM67.512 112.665C67.512 112.965 67.492 113.235 67.452 113.475H61.377C61.427 114.075 61.637 114.545 62.007 114.885C62.377 115.225 62.832 115.395 63.372 115.395C64.152 115.395 64.707 115.06 65.037 114.39H67.302C67.062 115.19 66.602 115.85 65.922 116.37C65.242 116.88 64.407 117.135 63.417 117.135C62.617 117.135 61.897 116.96 61.257 116.61C60.627 116.25 60.132 115.745 59.772 115.095C59.422 114.445 59.247 113.695 59.247 112.845C59.247 111.985 59.422 111.23 59.772 110.58C60.122 109.93 60.612 109.43 61.242 109.08C61.872 108.73 62.597 108.555 63.417 108.555C64.207 108.555 64.912 108.725 65.532 109.065C66.162 109.405 66.647 109.89 66.987 110.52C67.337 111.14 67.512 111.855 67.512 112.665ZM65.337 112.065C65.327 111.525 65.132 111.095 64.752 110.775C64.372 110.445 63.907 110.28 63.357 110.28C62.837 110.28 62.397 110.44 62.037 110.76C61.687 111.07 61.472 111.505 61.392 112.065H65.337ZM72.8548 110.415H71.3998V117H69.2698V110.415H68.3248V108.69H69.2698V108.27C69.2698 107.25 69.5598 106.5 70.1398 106.02C70.7198 105.54 71.5948 105.315 72.7648 105.345V107.115C72.2548 107.105 71.8998 107.19 71.6998 107.37C71.4998 107.55 71.3998 107.875 71.3998 108.345V108.69H72.8548V110.415ZM81.9407 112.665C81.9407 112.965 81.9207 113.235 81.8807 113.475H75.8057C75.8557 114.075 76.0657 114.545 76.4357 114.885C76.8057 115.225 77.2607 115.395 77.8007 115.395C78.5807 115.395 79.1357 115.06 79.4657 114.39H81.7307C81.4907 115.19 81.0307 115.85 80.3507 116.37C79.6707 116.88 78.8357 117.135 77.8457 117.135C77.0457 117.135 76.3257 116.96 75.6857 116.61C75.0557 116.25 74.5607 115.745 74.2007 115.095C73.8507 114.445 73.6757 113.695 73.6757 112.845C73.6757 111.985 73.8507 111.23 74.2007 110.58C74.5507 109.93 75.0407 109.43 75.6707 109.08C76.3007 108.73 77.0257 108.555 77.8457 108.555C78.6357 108.555 79.3407 108.725 79.9607 109.065C80.5907 109.405 81.0757 109.89 81.4157 110.52C81.7657 111.14 81.9407 111.855 81.9407 112.665ZM79.7657 112.065C79.7557 111.525 79.5607 111.095 79.1807 110.775C78.8007 110.445 78.3357 110.28 77.7857 110.28C77.2657 110.28 76.8257 110.44 76.4657 110.76C76.1157 111.07 75.9007 111.505 75.8207 112.065H79.7657ZM88.0785 108.57C89.0685 108.57 89.8685 108.885 90.4785 109.515C91.0885 110.135 91.3935 111.005 91.3935 112.125V117H89.2935V112.41C89.2935 111.75 89.1285 111.245 88.7985 110.895C88.4685 110.535 88.0185 110.355 87.4485 110.355C86.8685 110.355 86.4085 110.535 86.0685 110.895C85.7385 111.245 85.5735 111.75 85.5735 112.41V117H83.4735V108.69H85.5735V109.725C85.8535 109.365 86.2085 109.085 86.6385 108.885C87.0785 108.675 87.5585 108.57 88.0785 108.57ZM92.8505 112.815C92.8505 111.975 93.0155 111.23 93.3455 110.58C93.6855 109.93 94.1455 109.43 94.7255 109.08C95.3055 108.73 95.9505 108.555 96.6605 108.555C97.2005 108.555 97.7155 108.675 98.2055 108.915C98.6955 109.145 99.0855 109.455 99.3755 109.845V105.9H101.505V117H99.3755V115.77C99.1155 116.18 98.7505 116.51 98.2805 116.76C97.8105 117.01 97.2655 117.135 96.6455 117.135C95.9455 117.135 95.3055 116.955 94.7255 116.595C94.1455 116.235 93.6855 115.73 93.3455 115.08C93.0155 114.42 92.8505 113.665 92.8505 112.815ZM99.3905 112.845C99.3905 112.335 99.2905 111.9 99.0905 111.54C98.8905 111.17 98.6205 110.89 98.2805 110.7C97.9405 110.5 97.5755 110.4 97.1855 110.4C96.7955 110.4 96.4355 110.495 96.1055 110.685C95.7755 110.875 95.5055 111.155 95.2955 111.525C95.0955 111.885 94.9955 112.315 94.9955 112.815C94.9955 113.315 95.0955 113.755 95.2955 114.135C95.5055 114.505 95.7755 114.79 96.1055 114.99C96.4455 115.19 96.8055 115.29 97.1855 115.29C97.5755 115.29 97.9405 115.195 98.2805 115.005C98.6205 114.805 98.8905 114.525 99.0905 114.165C99.2905 113.795 99.3905 113.355 99.3905 112.845Z" fill="#183442"/>
<path d="M51.7962 39.1559V38.1648C51.7952 37.4846 51.5247 36.8326 51.044 36.3515C50.5632 35.8704 49.9114 35.5994 49.2313 35.5979H48.5314C47.8509 35.5989 47.1986 35.8697 46.7175 36.3508C46.2363 36.832 45.9655 37.4843 45.9645 38.1648V39.1559H45.73V44.4069H52.0308V39.1559H51.7962ZM47.4778 38.1648C47.4783 37.8855 47.5895 37.6178 47.7869 37.4203C47.9844 37.2228 48.2521 37.1117 48.5314 37.1112H49.2313C49.5102 37.1122 49.7774 37.2235 49.9745 37.421C50.1716 37.6184 50.2825 37.8858 50.283 38.1648V39.1559H47.4778V38.1648Z" stroke="#264758" stroke-miterlimit="10"/>
<path d="M49.3978 41.4258C49.398 41.3369 49.3753 41.2493 49.3318 41.1718C49.2882 41.0942 49.2254 41.0292 49.1494 40.983C49.0734 40.9368 48.9867 40.9111 48.8978 40.9083C48.8089 40.9055 48.7207 40.9256 48.6419 40.9669C48.5631 41.0081 48.4963 41.069 48.448 41.1437C48.3996 41.2184 48.3714 41.3042 48.3659 41.393C48.3605 41.4818 48.3782 41.5705 48.4171 41.6505C48.456 41.7304 48.515 41.799 48.5882 41.8495V43.2985H49.1765V41.8495C49.245 41.8022 49.301 41.7389 49.3395 41.665C49.3781 41.5912 49.3981 41.5091 49.3978 41.4258Z" stroke="#264758" stroke-miterlimit="10"/>
<path d="M38.8505 32.0834L46.587 27.6022" stroke="#264758" stroke-miterlimit="10"/>
<path d="M59.0012 49.5179L51.9608 53.5962" stroke="#264758" stroke-miterlimit="10"/>
<path d="M51.4578 27.536L59.007 31.8791" stroke="#264758" stroke-miterlimit="10"/>
<path d="M46.0611 53.4884L38.8447 49.3364" stroke="#264758" stroke-miterlimit="10"/>
<path d="M36.4935 36.2316L36.5049 45.1768" stroke="#264758" stroke-miterlimit="10"/>
<path d="M61.6929 45.139L61.6797 36.2656" stroke="#264758" stroke-miterlimit="10"/>
<path d="M42.9475 44.2234C43.5862 45.2535 44.4776 46.1033 45.5369 46.6923C46.5962 47.2812 47.7885 47.5897 49.0005 47.5886H49.0762" stroke="#264758" stroke-miterlimit="10"/>
<path d="M55.2313 37.0317C54.6227 35.9278 53.7318 35.0054 52.6496 34.359C51.5674 33.7125 50.3329 33.3652 49.0724 33.3526" stroke="#264758" stroke-miterlimit="10"/>
<path d="M49.0724 47.5867C50.2614 47.5738 51.4282 47.2629 52.4659 46.6822C53.5036 46.1016 54.379 45.2698 55.0119 44.2632" stroke="#264758" stroke-miterlimit="10"/>
<path d="M55.2314 37.0317C55.8451 38.1465 56.1484 39.4055 56.1099 40.6775C56.0713 41.9494 55.6921 43.1877 55.012 44.2632" stroke="#264758" stroke-miterlimit="10"/>
<path d="M42.73 37.0922C42.1363 38.1951 41.8438 39.435 41.882 40.687C41.9202 41.939 42.2877 43.1588 42.9475 44.2234" stroke="#264758" stroke-miterlimit="10"/>
<path d="M42.73 37.0922C43.3394 35.9608 44.2438 35.0156 45.3471 34.3568C46.4505 33.6981 47.7117 33.3504 48.9967 33.3507H49.0724" stroke="#264758" stroke-miterlimit="10"/>
<path d="M46.5869 27.6022C46.869 27.9741 47.2334 28.2758 47.6515 28.4835C48.0695 28.6912 48.53 28.7994 48.9968 28.7996H49.0724" stroke="#264758" stroke-miterlimit="10"/>
<path d="M51.4577 27.536C51.1846 27.9161 50.827 28.2278 50.4131 28.4463C49.9993 28.6649 49.5403 28.7846 49.0724 28.7958" stroke="#264758" stroke-miterlimit="10"/>
<path d="M51.4578 27.536C51.784 27.0809 51.9776 26.5442 52.017 25.9855C52.0563 25.4269 51.9399 24.8683 51.6807 24.3719C51.4215 23.8755 51.0297 23.4608 50.5488 23.1738C50.0679 22.8868 49.5168 22.7389 48.9568 22.7466C48.3969 22.7542 47.85 22.917 47.3771 23.2169C46.9041 23.5168 46.5237 23.9421 46.2781 24.4453C46.0325 24.9486 45.9313 25.5102 45.9858 26.0675C46.0404 26.6249 46.2485 27.1561 46.587 27.6023" stroke="#264758" stroke-miterlimit="10"/>
<path d="M49.0724 51.2109C49.7517 51.2265 50.406 51.4703 50.93 51.9029C51.4539 52.3356 51.817 52.932 51.9608 53.5961" stroke="#264758" stroke-miterlimit="10"/>
<path d="M46.061 53.4883C46.2269 52.8357 46.6056 52.257 47.1373 51.8438C47.669 51.4306 48.3234 51.2066 48.9967 51.2071H49.0724" stroke="#264758" stroke-miterlimit="10"/>
<path d="M46.061 53.4883C45.9961 53.7353 45.9631 53.9896 45.9626 54.245C45.9732 54.6631 46.0703 55.0746 46.2479 55.4533C46.4255 55.8321 46.6797 56.1699 46.9944 56.4455C47.3091 56.721 47.6775 56.9284 48.0763 57.0544C48.4752 57.1804 48.8959 57.2224 49.3118 57.1777C49.7277 57.133 50.1298 57.0025 50.4928 56.7946C50.8557 56.5866 51.1716 56.3057 51.4205 55.9695C51.6695 55.6333 51.846 55.2492 51.939 54.8413C52.032 54.4335 52.0394 54.0108 51.9608 53.5999" stroke="#264758" stroke-miterlimit="10"/>
<path d="M61.6797 36.2656H61.7176C62.2558 36.2642 62.7839 36.1193 63.2475 35.8458C63.711 35.5724 64.0933 35.1802 64.3549 34.7098C64.6164 34.2394 64.7478 33.7078 64.7354 33.1697C64.7231 32.6316 64.5675 32.1066 64.2846 31.6486C64.0018 31.1907 63.602 30.8165 63.1263 30.5646C62.6507 30.3127 62.1165 30.1921 61.5788 30.2154C61.0411 30.2387 60.5193 30.405 60.0672 30.6971C59.6152 30.9891 59.2492 31.3965 59.007 31.8772" stroke="#264758" stroke-miterlimit="10"/>
<path d="M59.1015 34.7656C58.8448 34.3311 58.7016 33.8389 58.6851 33.3345C58.6686 32.83 58.7792 32.3295 59.0069 31.8791" stroke="#264758" stroke-miterlimit="10"/>
<path d="M61.6798 36.2656C61.1571 36.2595 60.6449 36.1182 60.193 35.8553C59.7412 35.5924 59.3652 35.217 59.1016 34.7656" stroke="#264758" stroke-miterlimit="10"/>
<path d="M36.4935 36.2316C36.9485 36.164 37.382 35.9936 37.7612 35.7334C38.1405 35.4731 38.4554 35.1299 38.6821 34.7297" stroke="#264758" stroke-miterlimit="10"/>
<path d="M38.8504 32.0834C38.641 31.5774 38.2981 31.1377 37.8585 30.8112C37.4188 30.4847 36.8988 30.2837 36.3539 30.2294C35.8089 30.1752 35.2595 30.2698 34.7641 30.5032C34.2687 30.7367 33.8459 31.1001 33.5408 31.5549C33.2357 32.0097 33.0597 32.5387 33.0316 33.0856C33.0035 33.6325 33.1243 34.1768 33.3811 34.6605C33.6379 35.1442 34.0212 35.5491 34.49 35.8321C34.9589 36.1151 35.4957 36.2656 36.0434 36.2675C36.1941 36.2671 36.3446 36.2551 36.4936 36.2316" stroke="#264758" stroke-miterlimit="10"/>
<path d="M38.8504 32.0834C39.0253 32.5086 39.1011 32.968 39.0719 33.4269C39.0427 33.8858 38.9094 34.3319 38.682 34.7316" stroke="#264758" stroke-miterlimit="10"/>
<path d="M61.693 45.139C61.1664 45.1438 60.6502 45.2859 60.1954 45.5513C59.7406 45.8167 59.3629 46.1962 59.0996 46.6522" stroke="#264758" stroke-miterlimit="10"/>
<path d="M61.693 45.139H61.7176C62.2563 45.1405 62.7847 45.2858 63.2484 45.5598C63.7122 45.8338 64.0944 46.2266 64.3556 46.6977C64.6168 47.1687 64.7476 47.701 64.7344 48.2394C64.7213 48.7779 64.5647 49.3031 64.2807 49.7608C63.9968 50.2185 63.5959 50.5922 63.1193 50.8432C62.6427 51.0942 62.1078 51.2135 61.5698 51.1888C61.0317 51.164 60.51 50.9961 60.0585 50.7024C59.607 50.4087 59.242 49.9998 59.0013 49.518" stroke="#264758" stroke-miterlimit="10"/>
<path d="M59.0996 46.6447C58.8448 47.0774 58.7023 47.5669 58.6851 48.0688C58.6679 48.5707 58.7766 49.0688 59.0012 49.5179" stroke="#264758" stroke-miterlimit="10"/>
<path d="M36.5049 45.1768C36.3522 45.1527 36.198 45.1401 36.0434 45.139C35.4964 45.1409 34.9601 45.291 34.4916 45.5734C34.0231 45.8558 33.6399 46.2599 33.3827 46.7427C33.1256 47.2256 33.0041 47.7691 33.0312 48.3154C33.0583 48.8618 33.233 49.3906 33.5366 49.8456C33.8403 50.3006 34.2616 50.6648 34.7558 50.8994C35.2499 51.1341 35.7984 51.2304 36.343 51.1781C36.8875 51.1259 37.4077 50.9271 37.8482 50.6028C38.2888 50.2784 38.6332 49.8408 38.8448 49.3364" stroke="#264758" stroke-miterlimit="10"/>
<path d="M36.5049 45.1768C36.9639 45.2466 37.4008 45.4211 37.7816 45.6868C38.1624 45.9525 38.477 46.3022 38.701 46.709" stroke="#264758" stroke-miterlimit="10"/>
<path d="M38.8447 49.3364C39.02 48.9159 39.0982 48.4612 39.0733 48.0062C39.0484 47.5513 38.9211 47.1079 38.7009 46.709" stroke="#264758" stroke-miterlimit="10"/>
<path d="M49.0724 51.2109V47.5867" stroke="#264758" stroke-miterlimit="10"/>
<path d="M49.0724 28.7958V33.3526" stroke="#264758" stroke-miterlimit="10"/>
<path d="M59.0996 46.6447L55.0195 44.2632" stroke="#264758" stroke-miterlimit="10"/>
<path d="M42.73 37.0922L38.682 34.7297" stroke="#264758" stroke-miterlimit="10"/>
<path d="M42.9475 44.2234L38.7009 46.709" stroke="#264758" stroke-miterlimit="10"/>
<path d="M59.1016 34.7656L55.2314 37.0317" stroke="#264758" stroke-miterlimit="10"/>
<path d="M61.7175 33.2335L61.5416 33.3375" stroke="#264758" stroke-miterlimit="10"/>
<path d="M49.2956 67.3309V62.0023L44.6783 59.3371L40.0629 62.0023V67.3309L44.6783 69.9961L49.2956 67.3309Z" stroke="#264758" stroke-miterlimit="10"/>
<path d="M53.9527 75.336V70.0056L49.3372 67.3403L44.7218 70.0056V75.336L49.3372 78.0012L53.9527 75.336Z" stroke="#264758" stroke-miterlimit="10"/>
<path d="M49.3505 83.3165V77.986L44.7351 75.3208L40.1178 77.986V83.3165L44.7351 85.9817L49.3505 83.3165Z" stroke="#264758" stroke-miterlimit="10"/>
<path d="M46.5982 63.8522V63.2356C46.5977 62.8126 46.4296 62.4072 46.1307 62.1079C45.8318 61.8087 45.4265 61.6401 45.0036 61.6391H44.5667C44.1437 61.6401 43.7384 61.8087 43.4395 62.1079C43.1407 62.4072 42.9726 62.8126 42.9721 63.2356V63.8522H42.8264V67.1171H46.7439V63.8522H46.5982ZM43.9141 63.2356C43.9141 63.0623 43.9828 62.8961 44.1051 62.7735C44.2274 62.6508 44.3934 62.5816 44.5667 62.5811H45.0036C45.1769 62.5816 45.3428 62.6508 45.4652 62.7735C45.5875 62.8961 45.6562 63.0623 45.6562 63.2356V63.8522H43.9141V63.2356Z" stroke="#264758" stroke-miterlimit="10"/>
<path d="M45.1077 65.2596C45.1078 65.2041 45.0936 65.1496 45.0664 65.1013C45.0392 65.053 45 65.0126 44.9526 64.9839C44.9052 64.9552 44.8511 64.9392 44.7957 64.9376C44.7403 64.9359 44.6854 64.9486 44.6364 64.9744C44.5873 65.0003 44.5458 65.0383 44.5158 65.0849C44.4858 65.1315 44.4683 65.1851 44.4651 65.2404C44.4619 65.2958 44.4731 65.351 44.4975 65.4007C44.522 65.4505 44.5588 65.4931 44.6046 65.5244V66.4248H44.9678V65.5244C45.0109 65.495 45.0463 65.4556 45.0707 65.4094C45.0951 65.3632 45.1078 65.3118 45.1077 65.2596Z" stroke="#264758" stroke-miterlimit="10"/>
<path d="M51.0131 71.8895V71.2729C51.0126 70.8501 50.8445 70.4448 50.5455 70.1459C50.2466 69.8469 49.8413 69.6788 49.4185 69.6783H48.9835C48.5605 69.6788 48.155 69.8469 47.8558 70.1458C47.5566 70.4446 47.388 70.8499 47.387 71.2729V71.8895H47.2413V75.1544H51.1588V71.8895H51.0131ZM48.329 71.2729C48.329 71.0993 48.3979 70.9328 48.5207 70.8101C48.6434 70.6874 48.8099 70.6184 48.9835 70.6184H49.4185C49.592 70.6189 49.7581 70.688 49.8808 70.8106C50.0034 70.9333 50.0725 71.0995 50.073 71.2729V71.8895H48.329V71.2729Z" stroke="#264758" stroke-miterlimit="10"/>
<path d="M49.5264 73.3063C49.5268 73.2508 49.5129 73.1961 49.4859 73.1476C49.459 73.0991 49.4199 73.0584 49.3725 73.0295C49.3252 73.0005 49.2711 72.9843 49.2156 72.9825C49.1601 72.9806 49.1051 72.9932 49.0559 73.0189C49.0067 73.0446 48.965 73.0826 48.9349 73.1292C48.9047 73.1758 48.8872 73.2294 48.8839 73.2848C48.8806 73.3402 48.8917 73.3955 48.9161 73.4454C48.9405 73.4952 48.9775 73.5379 49.0233 73.5692V74.4696H49.3883V73.5692C49.431 73.54 49.4659 73.5007 49.49 73.4549C49.5141 73.4091 49.5266 73.3581 49.5264 73.3063Z" stroke="#264758" stroke-miterlimit="10"/>
<path d="M46.5605 79.8719V79.2572C46.56 78.8343 46.3919 78.4288 46.093 78.1295C45.7941 77.8303 45.3888 77.6617 44.9659 77.6607H44.5308C44.1076 77.6612 43.7018 77.8296 43.4025 78.1289C43.1032 78.4281 42.9348 78.8339 42.9343 79.2572V79.8738H42.7887V83.1387H46.708V79.8719H46.5605ZM43.8763 79.2572C43.8763 79.0836 43.9453 78.9171 44.068 78.7944C44.1908 78.6717 44.3573 78.6027 44.5308 78.6027H44.9659C45.1395 78.6027 45.3059 78.6717 45.4287 78.7944C45.5514 78.9171 45.6204 79.0836 45.6204 79.2572V79.8738H43.8763V79.2572Z" stroke="#264758" stroke-miterlimit="10"/>
<path d="M45.0699 81.2868C45.07 81.2314 45.0558 81.1769 45.0286 81.1285C45.0014 81.0802 44.9622 81.0398 44.9148 81.0111C44.8673 80.9824 44.8133 80.9665 44.7579 80.9648C44.7025 80.9632 44.6476 80.9759 44.5986 81.0017C44.5495 81.0275 44.508 81.0655 44.478 81.1121C44.4479 81.1587 44.4305 81.2123 44.4273 81.2676C44.4241 81.323 44.4352 81.3782 44.4597 81.428C44.4841 81.4777 44.521 81.5203 44.5667 81.5516V82.452H44.9318V81.5516C44.9744 81.5218 45.0092 81.4822 45.0332 81.4361C45.0573 81.39 45.0699 81.3388 45.0699 81.2868Z" stroke="#264758" stroke-miterlimit="10"/>
<path d="M34.7229 69.1184L34.7854 69.0086C34.7154 68.9235 34.6397 68.8422 34.564 68.7665C33.2399 68.1631 31.9253 68.5774 31.4619 68.7665C31.4146 68.8138 31.3673 68.8649 31.3219 68.916L31.3938 69.0616C31.4127 69.054 33.1397 68.2142 34.7229 69.1184Z" fill="#264758"/>
<path d="M35.5004 70.3252C35.447 70.1571 35.3838 69.9922 35.3112 69.8315C34.707 69.3501 33.9595 69.0839 33.187 69.0748C32.1788 69.0748 31.1895 69.595 30.6996 69.8977C30.6429 70.0238 30.5918 70.1543 30.5464 70.2892C30.7091 70.1738 31.9594 69.3169 33.1946 69.3169C34.0659 69.3366 34.8944 69.6988 35.5004 70.3252Z" fill="#264758"/>
<path d="M30.8566 73.6506C30.8566 73.6373 30.2419 72.3265 31.0269 71.097C31.2194 70.7858 31.4755 70.5188 31.7783 70.3135C32.0811 70.1081 32.4239 69.969 32.7841 69.9053C33.4613 69.7823 34.042 69.9299 34.2974 70.119C34.6626 70.4164 34.9859 70.7619 35.2583 71.1461C35.4089 71.3557 35.5773 71.5518 35.7615 71.7325C35.7615 71.602 35.7445 71.4753 35.7293 71.3542C35.6404 71.2502 35.5402 71.131 35.4494 71.0043C35.165 70.6021 34.8263 70.2412 34.4431 69.9318C34.1385 69.7048 33.4973 69.5364 32.7406 69.6726C32.3475 69.7421 31.9735 69.8937 31.6429 70.1177C31.3124 70.3416 31.0329 70.6328 30.8226 70.9721C29.9657 72.3189 30.6107 73.7035 30.6334 73.7603L30.8566 73.6506Z" fill="#264758"/>
<path d="M35.4721 72.0257C35.3718 71.8926 35.2796 71.7537 35.1959 71.6096C34.8441 71.0421 34.4052 70.3176 33.1152 70.3176C32.849 70.3055 32.5834 70.3531 32.338 70.4568C32.0925 70.5606 31.8733 70.7179 31.6965 70.9173C31.2085 71.4847 31.129 72.3076 31.2161 72.8902C31.2557 73.1339 31.2319 73.3837 31.1471 73.6156C31.0623 73.8475 30.9193 74.0536 30.7318 74.2143C30.7671 74.2874 30.805 74.3593 30.8453 74.4299C31.0748 74.2448 31.2518 74.0028 31.3587 73.728C31.4656 73.4532 31.4986 73.1552 31.4544 72.8637C31.3749 72.3341 31.4449 71.5907 31.88 71.0856C32.0336 70.9096 32.225 70.7705 32.4398 70.6788C32.6547 70.5871 32.8875 70.5451 33.1209 70.556C34.269 70.556 34.6341 71.1537 34.9878 71.7325C35.0774 71.8852 35.1759 72.0323 35.2829 72.1733C35.4068 72.3336 35.5611 72.4679 35.7369 72.5686C35.7369 72.4797 35.7539 72.3795 35.7577 72.2962C35.6503 72.2199 35.5542 72.1288 35.4721 72.0257Z" fill="#264758"/>
<path d="M34.583 72.0427C34.5329 71.9374 34.4767 71.8351 34.4147 71.7363C34.1858 71.392 33.6467 70.5862 32.5458 71.0383C31.6814 71.3958 31.7627 72.3038 31.8365 73.1039C31.8573 73.3366 31.8781 73.556 31.8781 73.7622C31.8781 74.3296 31.4695 74.7231 31.1896 74.9217C31.2425 74.9879 31.2955 75.0484 31.3504 75.1109C31.6625 74.8782 32.124 74.4337 32.124 73.7716C32.124 73.5541 32.1032 73.3195 32.0824 73.0926C32.0105 72.3038 31.9424 71.5604 32.6499 71.2729C33.5673 70.8946 33.974 71.5112 34.2255 71.8801C34.269 71.9482 34.3201 72.0484 34.3788 72.1638C34.6242 72.7336 35.0222 73.2245 35.5288 73.5825C35.5534 73.5011 35.5761 73.4179 35.5969 73.3347C35.1518 73.0001 34.8022 72.5546 34.583 72.0427Z" fill="#264758"/>
<path d="M34.3938 73.0831C34.2666 72.9382 34.17 72.7689 34.1101 72.5856C34.0027 72.2641 33.8059 71.98 33.5426 71.7666C33.4526 71.689 33.3413 71.6402 33.2232 71.6268C33.1051 71.6133 32.9857 71.6356 32.8805 71.6909C32.5306 71.8801 32.3131 72.404 32.3471 72.9412C32.4001 73.6146 33.8906 74.8044 34.5186 75.2773C34.5773 75.2225 34.634 75.1619 34.6889 75.1014C33.9606 74.5528 32.629 73.4501 32.5892 72.9223C32.5552 72.4854 32.7292 72.0465 32.9959 71.9047C33.0609 71.8698 33.1351 71.8564 33.2082 71.8662C33.2812 71.8761 33.3492 71.9087 33.4026 71.9595C33.629 72.1483 33.7969 72.3976 33.8869 72.6783C33.9594 72.8884 34.074 73.0814 34.2236 73.2458C34.5734 73.5567 34.9423 73.8454 35.3282 74.1102C35.3623 74.0346 35.3963 73.9608 35.4266 73.8813C35.066 73.637 34.7211 73.3704 34.3938 73.0831Z" fill="#264758"/>
<path d="M33.0698 72.404C33.1209 73.2382 34.4431 74.4451 34.9103 74.848C34.9576 74.7836 35.0049 74.7155 35.0484 74.6474C34.4526 74.1329 33.346 73.0529 33.3119 72.3889L33.0698 72.404Z" fill="#264758"/>
<path d="M33.3876 74.7855C33.2098 74.5775 33.0679 74.4072 32.8201 74.4072C32.4418 74.4072 31.8743 75.0333 31.6095 75.353C31.67 75.4054 31.7331 75.4546 31.7987 75.5006C32.1335 75.1014 32.6007 74.6418 32.8163 74.6418C32.9431 74.6418 33.0301 74.7345 33.1946 74.9293C33.4205 75.2067 33.6894 75.4462 33.991 75.6386C34.0696 75.5946 34.146 75.5466 34.2199 75.4949C33.9026 75.3095 33.6208 75.0694 33.3876 74.7855Z" fill="#264758"/>
<path d="M33.5805 75.8297C33.4065 75.5686 33.119 75.1809 32.9128 75.1298C32.6669 75.0674 32.4494 75.4495 32.3113 75.7805C32.3888 75.8089 32.4664 75.8335 32.5458 75.8543C32.6064 75.6679 32.7123 75.4995 32.8542 75.3644C32.9412 75.3852 33.1398 75.6197 33.3252 75.8864C33.4115 75.8733 33.4968 75.8544 33.5805 75.8297Z" fill="#264758"/>
<path d="M37.1669 70.7035H42.3025" stroke="#264758" stroke-miterlimit="10"/>
<path d="M37.1669 71.7438H42.3025" stroke="#264758" stroke-miterlimit="10"/>
<path d="M37.1669 72.7861H42.3025" stroke="#264758" stroke-miterlimit="10"/>
<path d="M37.1669 73.8284H42.3025" stroke="#264758" stroke-miterlimit="10"/>
<path d="M100.315 30.2656H100.61C100.714 30.2656 100.818 30.2861 100.914 30.3261C101.011 30.366 101.098 30.4245 101.172 30.4983C101.246 30.5721 101.304 30.6596 101.344 30.756C101.384 30.8524 101.405 30.9557 101.405 31.0601V40.3666H99.5131V31.0601C99.5131 30.9551 99.5339 30.8512 99.5743 30.7543C99.6146 30.6574 99.6738 30.5695 99.7484 30.4956C99.823 30.4217 99.9115 30.3634 100.009 30.3239C100.106 30.2844 100.21 30.2646 100.315 30.2656Z" fill="white" stroke="#264758" stroke-miterlimit="10"/>
<path d="M100.493 30.2656H100.788C100.892 30.2656 100.996 30.2861 101.092 30.3261C101.188 30.366 101.276 30.4245 101.35 30.4983C101.423 30.5721 101.482 30.6596 101.522 30.756C101.562 30.8524 101.582 30.9557 101.582 31.0601V40.3666H99.6908V31.0601C99.6908 30.9551 99.7116 30.8512 99.752 30.7543C99.7924 30.6574 99.8516 30.5695 99.9262 30.4956C100.001 30.4217 100.089 30.3634 100.186 30.3239C100.284 30.2844 100.388 30.2646 100.493 30.2656Z" fill="#A3A3A3" stroke="#264758" stroke-miterlimit="10"/>
<path d="M95.6239 39.0235L98.8963 37.0431L99.7759 36.3413C99.7759 36.3413 100.234 35.2442 99.965 34.2606C99.6964 33.277 99.4165 33.2997 99.4165 33.2997L96.39 34.6956C96.39 34.6956 97.4114 37.6105 95.6239 39.0235Z" fill="#264758" stroke="#264758" stroke-linecap="round" stroke-linejoin="round"/>
<path d="M94.0879 34.5349L95.7582 34.1225C94.9013 32.4201 93.1346 31.5538 91.7594 32.1969C90.5545 32.7644 90.0419 34.2928 90.4448 35.8439L94.0879 34.5349Z" fill="white" stroke="#264758" stroke-miterlimit="10"/>
<path d="M95.623 39.0234C97.0285 38.3668 97.4923 36.3882 96.6588 34.604C95.8253 32.8199 94.0102 31.9058 92.6047 32.5624C91.1991 33.2191 90.7354 35.1977 91.5688 36.9818C92.4023 38.766 94.2174 39.68 95.623 39.0234Z" fill="#4F4F4F" stroke="#264758" stroke-linecap="round" stroke-linejoin="round"/>
<path d="M94.8276 35.562C95.1889 36.3356 94.9865 37.1944 94.3774 37.48C93.7683 37.7657 92.9795 37.3684 92.6182 36.5948C92.257 35.8211 92.4575 34.9605 93.0684 34.6767C93.6794 34.393 94.4663 34.7827 94.8276 35.562Z" fill="#264758" stroke="#264758" stroke-linecap="round" stroke-linejoin="round"/>
<path d="M102.39 31.166C101.596 29.4636 99.9083 28.5556 98.535 29.0437V29.021L92.3042 31.968L91.2506 32.4712C92.194 32.2076 93.2004 32.2886 94.0895 32.6997C94.9786 33.1108 95.6922 33.8251 96.1025 34.7146C96.1025 34.7335 96.1214 34.7543 96.129 34.7732C96.1592 34.8422 96.203 34.9045 96.2576 34.9564C96.3122 35.0083 96.3766 35.0488 96.447 35.0756C96.5174 35.1024 96.5925 35.1148 96.6678 35.1123C96.7431 35.1097 96.8171 35.0922 96.8856 35.0607L99.0514 34.096C99.0514 34.096 99.7986 35.6793 98.9039 37.0393L101.174 35.6566C101.234 35.6339 101.295 35.6093 101.353 35.5809C102.761 34.9283 103.224 32.9497 102.39 31.166Z" fill="white" stroke="#264758" stroke-miterlimit="10"/>
<path d="M102.333 30.2656H102.628C102.733 30.2656 102.836 30.2861 102.932 30.326C103.029 30.366 103.116 30.4245 103.19 30.4983C103.264 30.572 103.322 30.6596 103.362 30.756C103.402 30.8524 103.423 30.9557 103.423 31.06V40.3665H101.545V31.06C101.545 30.8503 101.627 30.6491 101.775 30.5003C101.923 30.3514 102.124 30.2671 102.333 30.2656Z" fill="white" stroke="#264758" stroke-miterlimit="10"/>
<path d="M102.511 30.2656H102.806C102.911 30.2656 103.014 30.2861 103.11 30.3261C103.207 30.366 103.294 30.4245 103.368 30.4983C103.442 30.5721 103.5 30.6596 103.54 30.756C103.58 30.8524 103.601 30.9557 103.601 31.0601V40.3666H101.709V31.0601C101.709 30.9551 101.73 30.8512 101.77 30.7543C101.811 30.6574 101.87 30.5695 101.944 30.4956C102.019 30.4217 102.108 30.3634 102.205 30.3239C102.302 30.2844 102.406 30.2646 102.511 30.2656Z" fill="white" stroke="#264758" stroke-miterlimit="10"/>
<path d="M96.9064 40.2303H105.006C105.081 40.2303 105.154 40.2602 105.207 40.3135C105.26 40.3667 105.29 40.4388 105.29 40.5141V40.9037H96.6265V40.5141C96.6265 40.4395 96.6558 40.3679 96.7082 40.3148C96.7606 40.2617 96.8318 40.2313 96.9064 40.2303Z" fill="white" stroke="#264758" stroke-miterlimit="10"/>
<path d="M95.3534 40.7241H106.557C106.632 40.7241 106.705 40.754 106.758 40.8072C106.811 40.8604 106.841 40.9325 106.841 41.0078V41.3975H95.0697V41.0078C95.0697 40.9325 95.0996 40.8604 95.1528 40.8072C95.206 40.754 95.2782 40.7241 95.3534 40.7241Z" fill="white" stroke="#264758" stroke-miterlimit="10"/>
<path d="M81.6402 37.0537C84.8282 36.2901 86.7936 33.0866 86.03 29.8986C85.2664 26.7105 82.0629 24.7452 78.8749 25.5088C75.6868 26.2724 73.7214 29.4758 74.4851 32.6639C75.2487 35.8519 78.4521 37.8173 81.6402 37.0537Z" fill="white" stroke="#264758" stroke-miterlimit="10"/>
<path d="M82.214 29.7328C82.4707 28.6503 81.8012 27.5646 80.7186 27.3078C79.6361 27.0511 78.5504 27.7206 78.2937 28.8032C78.037 29.8858 78.7065 30.9715 79.789 31.2282C80.8716 31.4849 81.9573 30.8154 82.214 29.7328Z" fill="#264758" stroke="#264758" stroke-miterlimit="10"/>
<path d="M83.4914 35.0266C83.4914 34.1688 83.1506 33.346 82.544 32.7394C81.9374 32.1328 81.1147 31.7921 80.2568 31.7921C79.3989 31.7921 78.5762 32.1328 77.9696 32.7394C77.363 33.346 77.0222 34.1688 77.0222 35.0266H83.4914Z" fill="#264758" stroke="#264758" stroke-miterlimit="10"/>
<path d="M85.907 32.3085L89.3591 33.748" stroke="#264758" stroke-miterlimit="10"/>
<path d="M98.2021 91.2365L92.3288 81.7786L80.5235 81.9905L86.2077 91.2497C86.4345 91.6186 86.5211 92.0569 86.4517 92.4843C86.3822 92.9118 86.1614 93.3001 85.8294 93.5782L84.4882 93.6728H68.8715V94.0114H96.6643C96.9884 94.0125 97.307 93.9265 97.5866 93.7624C97.8662 93.5983 98.0966 93.3622 98.2537 93.0787C98.4108 92.7951 98.489 92.4746 98.4799 92.1505C98.4708 91.8265 98.3749 91.5108 98.2021 91.2365Z" fill="#264758" stroke="#264758" stroke-linecap="round" stroke-linejoin="round"/>
<path d="M91.6611 81.9734L97.5344 91.4313C97.7057 91.7055 97.8004 92.0206 97.8087 92.3438C97.8171 92.667 97.7387 92.9865 97.5817 93.2692C97.4247 93.5518 97.1949 93.7873 96.9162 93.9511C96.6374 94.1149 96.3199 94.201 95.9966 94.2005H83.9984C84.3203 94.2004 84.6363 94.1145 84.9139 93.9515C85.1916 93.7886 85.4207 93.5546 85.5778 93.2736C85.7348 92.9926 85.8141 92.6748 85.8075 92.353C85.8009 92.0312 85.7085 91.7169 85.54 91.4426L79.8558 82.1834L91.6611 81.9734Z" fill="white" stroke="#264758" stroke-linecap="round" stroke-linejoin="round"/>
<path d="M91.3301 81.4401L79.5248 81.65L81.7114 85.2119H93.6718L91.3301 81.4401Z" fill="#264758" stroke="#264758" stroke-linecap="round" stroke-linejoin="round"/>
<path d="M59.7428 83.8821H108.82C109.124 83.8821 109.37 83.6356 109.37 83.3316V42.0557C109.37 41.7517 109.124 41.5053 108.82 41.5053L59.7428 41.5053C59.4388 41.5053 59.1924 41.7517 59.1924 42.0557L59.1924 83.3316C59.1924 83.6356 59.4388 83.8821 59.7428 83.8821Z" fill="#264758" stroke="#264758" stroke-linecap="round" stroke-linejoin="round"/>
<path d="M59.0088 83.8821H105.759C106.705 83.8821 107.473 83.1148 107.473 82.1683V43.219C107.473 42.2726 106.705 41.5053 105.759 41.5053L59.0088 41.5053C58.0623 41.5053 57.295 42.2726 57.295 43.219L57.295 82.1683C57.295 83.1148 58.0623 83.8821 59.0088 83.8821Z" fill="white" stroke="#264758" stroke-linecap="round" stroke-linejoin="round"/>
<path d="M58.9332 41.5052H105.844C106.278 41.5058 106.694 41.6786 107.001 41.9857C107.308 42.2929 107.48 42.7092 107.48 43.1433V76.2931H57.297V43.1433C57.297 42.7092 57.4693 42.2929 57.7761 41.9857C58.0829 41.6786 58.4991 41.5058 58.9332 41.5052Z" fill="#264758" stroke="#264758" stroke-linecap="round" stroke-linejoin="round"/>
<path d="M59.4042 73.9722H105.365V43.1907L59.4042 43.1907L59.4042 73.9722Z" fill="white" stroke="#264758" stroke-linecap="round" stroke-linejoin="round"/>
<path d="M59.4893 57.6933H105.39" stroke="#264758" stroke-miterlimit="10"/>
<path d="M61.4187 56.8213C61.4187 56.9127 61.3916 57.002 61.3408 57.0779C61.29 57.1538 61.2178 57.213 61.1333 57.2479C61.0489 57.2828 60.956 57.2918 60.8664 57.2738C60.7768 57.2559 60.6946 57.2117 60.6301 57.147C60.5656 57.0822 60.5218 56.9998 60.5042 56.9102C60.4867 56.8205 60.4961 56.7276 60.5313 56.6433C60.5665 56.559 60.626 56.4871 60.7021 56.4366C60.7783 56.3861 60.8677 56.3594 60.959 56.3597C61.0196 56.3597 61.0795 56.3717 61.1354 56.3949C61.1913 56.4181 61.242 56.4522 61.2847 56.495C61.3274 56.5379 61.3613 56.5888 61.3842 56.6448C61.4072 56.7008 61.4189 56.7608 61.4187 56.8213Z" stroke="#264758" stroke-miterlimit="10"/>
<path d="M62.9982 57.2809C63.2521 57.2809 63.4579 57.0751 63.4579 56.8213C63.4579 56.5674 63.2521 56.3616 62.9982 56.3616C62.7444 56.3616 62.5386 56.5674 62.5386 56.8213C62.5386 57.0751 62.7444 57.2809 62.9982 57.2809Z" stroke="#264758" stroke-miterlimit="10"/>
<path d="M65.0373 57.2809C65.2911 57.2809 65.4969 57.0751 65.4969 56.8213C65.4969 56.5674 65.2911 56.3616 65.0373 56.3616C64.7834 56.3616 64.5776 56.5674 64.5776 56.8213C64.5776 57.0751 64.7834 57.2809 65.0373 57.2809Z" stroke="#264758" stroke-miterlimit="10"/>
<path d="M67.536 56.8213C67.5356 56.9121 67.5083 57.0008 67.4576 57.0761C67.4069 57.1515 67.335 57.2101 67.2509 57.2446C67.1669 57.2791 67.0746 57.2879 66.9855 57.27C66.8965 57.252 66.8148 57.2081 66.7507 57.1437C66.6866 57.0794 66.643 56.9975 66.6254 56.9084C66.6078 56.8193 66.617 56.7269 66.6519 56.6431C66.6867 56.5592 66.7456 56.4875 66.8212 56.4371C66.8967 56.3867 66.9855 56.3597 67.0763 56.3597C67.1369 56.3597 67.1968 56.3717 67.2527 56.3949C67.3086 56.4181 67.3593 56.4522 67.402 56.495C67.4447 56.5379 67.4786 56.5888 67.5016 56.6448C67.5245 56.7008 67.5362 56.7608 67.536 56.8213Z" stroke="#264758" stroke-miterlimit="10"/>
<path d="M69.577 56.8213C69.577 56.9126 69.5499 57.0018 69.4992 57.0777C69.4485 57.1536 69.3764 57.2128 69.2921 57.2477C69.2078 57.2826 69.115 57.2918 69.0254 57.274C68.9359 57.2562 68.8537 57.2122 68.7891 57.1476C68.7246 57.0831 68.6806 57.0009 68.6628 56.9113C68.645 56.8218 68.6541 56.729 68.6891 56.6447C68.724 56.5603 68.7832 56.4882 68.8591 56.4375C68.935 56.3868 69.0242 56.3597 69.1155 56.3597C69.1762 56.3595 69.2363 56.3713 69.2924 56.3944C69.3485 56.4175 69.3995 56.4515 69.4424 56.4944C69.4853 56.5373 69.5193 56.5883 69.5424 56.6444C69.5655 56.7005 69.5773 56.7606 69.577 56.8213Z" stroke="#264758" stroke-miterlimit="10"/>
<path d="M94.245 56.8213C94.2469 56.9132 94.2213 57.0036 94.1715 57.0809C94.1217 57.1581 94.0499 57.2187 93.9654 57.2549C93.8809 57.2912 93.7875 57.3013 93.6972 57.2841C93.6069 57.267 93.5238 57.2232 93.4586 57.1585C93.3933 57.0937 93.3488 57.011 93.3309 56.9208C93.313 56.8307 93.3223 56.7372 93.3579 56.6524C93.3934 56.5676 93.4534 56.4954 93.5302 56.4449C93.6071 56.3945 93.6972 56.3681 93.7891 56.3692C93.9091 56.3702 94.0239 56.418 94.1091 56.5025C94.1943 56.587 94.243 56.7014 94.245 56.8213Z" stroke="#264758" stroke-miterlimit="10"/>
<path d="M96.284 56.8213C96.284 56.9127 96.2569 57.002 96.2061 57.0779C96.1553 57.1538 96.0831 57.213 95.9987 57.2479C95.9142 57.2828 95.8213 57.2918 95.7318 57.2738C95.6422 57.2559 95.5599 57.2117 95.4955 57.147C95.431 57.0822 95.3872 56.9998 95.3696 56.9102C95.352 56.8205 95.3614 56.7276 95.3966 56.6433C95.4319 56.559 95.4913 56.4871 95.5675 56.4366C95.6436 56.3861 95.733 56.3594 95.8244 56.3597C95.8849 56.3597 95.9448 56.3717 96.0007 56.3949C96.0566 56.4181 96.1074 56.4522 96.1501 56.495C96.1928 56.5379 96.2266 56.5888 96.2496 56.6448C96.2726 56.7008 96.2843 56.7608 96.284 56.8213Z" stroke="#264758" stroke-miterlimit="10"/>
<path d="M98.3288 56.8213C98.3285 56.9121 98.3012 57.0008 98.2505 57.0761C98.1997 57.1515 98.1278 57.2101 98.0438 57.2446C97.9598 57.2791 97.8674 57.2879 97.7784 57.27C97.6893 57.252 97.6076 57.2081 97.5435 57.1437C97.4794 57.0794 97.4358 56.9975 97.4182 56.9084C97.4007 56.8193 97.4099 56.7269 97.4447 56.6431C97.4796 56.5592 97.5385 56.4875 97.614 56.4371C97.6896 56.3867 97.7784 56.3597 97.8692 56.3597C97.9297 56.3597 97.9896 56.3717 98.0455 56.3949C98.1014 56.4181 98.1522 56.4522 98.1949 56.495C98.2376 56.5379 98.2714 56.5888 98.2944 56.6448C98.3174 56.7008 98.3291 56.7608 98.3288 56.8213Z" stroke="#264758" stroke-miterlimit="10"/>
<path d="M100.364 56.8213C100.364 56.9126 100.337 57.0018 100.286 57.0777C100.236 57.1536 100.164 57.2128 100.079 57.2477C99.995 57.2826 99.9022 57.2918 99.8127 57.274C99.7231 57.2562 99.6409 57.2122 99.5763 57.1476C99.5118 57.0831 99.4678 57.0009 99.45 56.9113C99.4322 56.8218 99.4414 56.729 99.4763 56.6447C99.5112 56.5603 99.5704 56.4882 99.6463 56.4375C99.7222 56.3868 99.8114 56.3597 99.9027 56.3597C99.9634 56.3595 100.024 56.3713 100.08 56.3944C100.136 56.4175 100.187 56.4515 100.23 56.4944C100.273 56.5373 100.307 56.5883 100.33 56.6444C100.353 56.7005 100.365 56.7606 100.364 56.8213Z" stroke="#264758" stroke-miterlimit="10"/>
<path d="M101.942 57.2809C102.196 57.2809 102.401 57.0751 102.401 56.8213C102.401 56.5674 102.196 56.3616 101.942 56.3616C101.688 56.3616 101.482 56.5674 101.482 56.8213C101.482 57.0751 101.688 57.2809 101.942 57.2809Z" stroke="#264758" stroke-miterlimit="10"/>
<path d="M103.981 57.2809C104.235 57.2809 104.441 57.0751 104.441 56.8213C104.441 56.5674 104.235 56.3616 103.981 56.3616C103.727 56.3616 103.521 56.5674 103.521 56.8213C103.521 57.0751 103.727 57.2809 103.981 57.2809Z" stroke="#264758" stroke-miterlimit="10"/>
<path d="M92.3401 68.4128H69.8929C69.5795 68.4128 69.3254 68.6669 69.3254 68.9803V71.2502C69.3254 71.5636 69.5795 71.8177 69.8929 71.8177H92.3401C92.6536 71.8177 92.9076 71.5636 92.9076 71.2502V68.9803C92.9076 68.6669 92.6536 68.4128 92.3401 68.4128Z" fill="white" stroke="#264758" stroke-linecap="round" stroke-linejoin="round"/>
<path d="M74.8488 69.9885L74.7788 69.5516H75.0172L74.9491 69.9885L75.3444 69.7899L75.4182 70.015L74.9831 70.0888L75.2933 70.399L75.1042 70.539L74.8999 70.1474L74.6956 70.539L74.5064 70.399L74.8148 70.0888L74.3816 70.015L74.4554 69.7899L74.8488 69.9885Z" fill="#264758"/>
<path d="M76.3072 69.9885L76.2391 69.5516H76.4774L76.4074 69.9885L76.8028 69.7899L76.8765 70.015L76.4434 70.0888L76.7517 70.399L76.5625 70.539L76.3583 70.1474L76.154 70.539L75.9648 70.399L76.275 70.0888L75.84 70.015L75.9137 69.7899L76.3072 69.9885Z" fill="#264758"/>
<path d="M77.7657 69.9885L77.6976 69.5516H77.9359L77.8678 69.9885L78.2613 69.7899L78.3369 70.015L77.9019 70.0888L78.2121 70.399L78.0229 70.539L77.8186 70.1474L77.6144 70.539L77.4252 70.399L77.7354 70.0888L77.3022 70.015L77.376 69.7899L77.7657 69.9885Z" fill="#264758"/>
<path d="M79.224 69.9885L79.154 69.5516H79.3942L79.3242 69.9885L79.7196 69.7899L79.7934 70.015L79.3583 70.0888L79.6685 70.399L79.4794 70.539L79.2751 70.1474L79.0727 70.539L78.8835 70.399L79.1937 70.0888L78.7587 70.015L78.8324 69.7899L79.224 69.9885Z" fill="#264758"/>
<path d="M80.6843 69.9885L80.6162 69.5516H80.8546L80.7846 69.9885L81.1799 69.7899L81.2537 70.015L80.8205 70.0888L81.1307 70.399L80.9416 70.539L80.7373 70.1436L80.533 70.5352L80.3438 70.3952L80.6541 70.085L80.219 70.0112L80.2947 69.7861L80.6843 69.9885Z" fill="#264758"/>
<path d="M82.1446 69.9885L82.0747 69.5516H82.313L82.2506 69.9885L82.6459 69.7899L82.7197 70.015L82.2846 70.0888L82.5948 70.399L82.4057 70.539L82.2014 70.1474L81.9971 70.539L81.8079 70.399L82.1163 70.0888L81.6831 70.015L81.7569 69.7899L82.1446 69.9885Z" fill="#264758"/>
<path d="M83.603 69.9885L83.5349 69.5516H83.7732L83.7032 69.9885L84.0985 69.7899L84.1723 70.015L83.7392 70.0888L84.0475 70.399L83.8583 70.539L83.654 70.1474L83.4497 70.539L83.2606 70.399L83.5708 70.0888L83.1357 70.015L83.2095 69.7899L83.603 69.9885Z" fill="#264758"/>
<path d="M85.0615 69.9885L84.9934 69.5516H85.2317L85.1636 69.9885L85.557 69.7899L85.6327 70.015L85.1976 70.0888L85.5079 70.399L85.3187 70.539L85.1144 70.1474L84.9101 70.539L84.721 70.399L85.0312 70.0888L84.598 70.015L84.6718 69.7899L85.0615 69.9885Z" fill="#264758"/>
<path d="M86.5217 69.9885L86.4517 69.5516H86.6901L86.622 69.9885L87.0173 69.7899L87.0911 70.015L86.656 70.0888L86.9662 70.399L86.7771 70.539L86.5728 70.1474L86.3704 70.539L86.1812 70.399L86.4915 70.0888L86.0564 70.015L86.1302 69.7899L86.5217 69.9885Z" fill="#264758"/>
<path d="M87.9801 69.9885L87.912 69.5516H88.1503L88.0804 69.9885L88.4757 69.7899L88.5495 70.015L88.1163 70.0888L88.4265 70.399L88.2374 70.539L88.0331 70.1474L87.8288 70.539L87.6396 70.399L87.9498 70.0888L87.5148 70.015L87.5904 69.7899L87.9801 69.9885Z" fill="#264758"/>
<path d="M89.3171 64.0577C93.7249 59.6499 93.7249 52.5033 89.3171 48.0955C84.9092 43.6877 77.7627 43.6877 73.3549 48.0955C68.947 52.5033 68.947 59.6499 73.3549 64.0577C77.7627 68.4655 84.9092 68.4655 89.3171 64.0577Z" fill="white" stroke="#264758" stroke-linecap="round" stroke-linejoin="round"/>
<path d="M86.7904 61.5311C89.8028 58.5187 89.8028 53.6345 86.7903 50.6221C83.7779 47.6097 78.8938 47.6097 75.8814 50.6221C72.8689 53.6345 72.8689 58.5187 75.8814 61.5311C78.8938 64.5435 83.7779 64.5435 86.7904 61.5311Z" fill="#264758" stroke="#264758" stroke-linecap="round" stroke-linejoin="round"/>
<path d="M83.5143 63.2331C87.4666 61.6427 89.3812 57.1495 87.7908 53.1973C86.2004 49.245 81.7073 47.3304 77.755 48.9208C73.8028 50.5111 71.8881 55.0043 73.4785 58.9566C75.0689 62.9088 79.5621 64.8235 83.5143 63.2331Z" fill="white" stroke="#264758" stroke-linecap="round" stroke-linejoin="round"/>
<path d="M84.5103 59.9165C86.6312 57.7957 86.6312 54.3572 84.5103 52.2363C82.3895 50.1155 78.951 50.1155 76.8302 52.2363C74.7094 54.3572 74.7094 57.7957 76.8302 59.9165C78.951 62.0373 82.3895 62.0373 84.5103 59.9165Z" fill="white" stroke="#264758" stroke-linecap="round" stroke-linejoin="round"/>
<path d="M71.2794 52.0981L71.4099 51.8105L72.9762 52.5237L73.1918 52.0527L73.4528 52.1699L73.1067 52.9266L71.2794 52.0981Z" fill="#264758"/>
<path d="M72.1722 51.3282C72.1165 51.2965 72.0677 51.254 72.0287 51.2032C71.9897 51.1523 71.9613 51.0942 71.9452 51.0321C71.9291 50.9701 71.9256 50.9055 71.9349 50.8421C71.9443 50.7787 71.9663 50.7178 71.9996 50.6631C72.0329 50.6083 72.0769 50.5608 72.1289 50.5234C72.181 50.486 72.24 50.4594 72.3025 50.4452C72.365 50.431 72.4297 50.4295 72.4928 50.4408C72.5559 50.4522 72.616 50.476 72.6697 50.511L73.5606 51.052C73.6195 51.082 73.6715 51.1239 73.7135 51.175C73.7554 51.226 73.7864 51.2852 73.8044 51.3488C73.8225 51.4123 73.8272 51.4789 73.8183 51.5444C73.8094 51.6099 73.7872 51.6729 73.7529 51.7294C73.7185 51.7858 73.673 51.8346 73.6189 51.8727C73.5649 51.9107 73.5036 51.9373 73.4389 51.9506C73.3742 51.9639 73.3074 51.9637 73.2427 51.95C73.1781 51.9363 73.1169 51.9094 73.0632 51.871L72.1722 51.3282ZM73.2447 51.6119C73.3677 51.6857 73.4471 51.6611 73.4982 51.5741C73.5493 51.4871 73.536 51.4057 73.415 51.3319L72.4881 50.7645C72.3652 50.6888 72.2857 50.7153 72.2347 50.8004C72.1836 50.8855 72.1968 50.9688 72.3179 51.0425L73.2447 51.6119Z" fill="#264758"/>
<path d="M73.6648 49.9662L74.41 50.7418L74.132 51.0728L72.4523 49.9511L72.6414 49.7165L73.9655 50.6075L72.8514 49.4725L73.0405 49.2418L74.3646 50.1459L73.2581 48.9921L73.4359 48.7802L74.8281 50.2443L74.5576 50.564L73.6648 49.9662Z" fill="#264758"/>
<path d="M78.7455 47.3389L78.6093 45.9032L79.0349 45.7972L79.5211 47.7456L79.2316 47.8174L78.8817 46.4215L79.0198 47.8704L78.7304 47.9423L78.1629 46.6182L78.5053 47.9952L78.2386 48.0633L77.7524 46.115L78.178 46.0091L78.7455 47.3389Z" fill="#264758"/>
<path d="M79.8786 46.5501L80.3098 46.5066L80.3382 46.7922L79.9069 46.8357L79.9656 47.4202L80.5084 47.3673L80.5368 47.6529L79.6799 47.7361L79.4813 45.7386L80.3382 45.6535L80.3666 45.9391L79.8237 45.9921L79.8786 46.5501Z" fill="#264758"/>
<path d="M80.7146 45.6384L81.214 45.6497C81.528 45.6497 81.6793 45.8389 81.6718 46.1567L81.6472 47.1724C81.6472 47.494 81.4807 47.6642 81.1667 47.6567L80.6674 47.6453L80.7146 45.6384ZM81.023 45.9335L80.9889 47.3654H81.1667C81.267 47.3654 81.3294 47.3162 81.3332 47.1762L81.3578 46.1321C81.3578 45.9883 81.301 45.9429 81.2008 45.9335H81.023Z" fill="#264758"/>
<path d="M82.0293 45.7026L82.3433 45.7405L82.1031 47.7342L81.7891 47.6963L82.0293 45.7026Z" fill="#264758"/>
<path d="M83.0071 45.854L82.6761 47.3672C82.6459 47.5091 82.6969 47.5715 82.7953 47.5942C82.8937 47.6169 82.9655 47.5772 82.9958 47.4372L83.3268 45.924L83.6181 45.9864L83.2909 47.4807C83.2228 47.7947 83.028 47.9385 82.7234 47.8723C82.4189 47.8061 82.3035 47.5923 82.3716 47.2783L82.6969 45.7859L83.0071 45.854Z" fill="#264758"/>
<path d="M84.163 47.668L84.8742 46.4139L85.2847 46.5709L84.564 48.4454L84.2859 48.3376L84.8023 46.9946L84.0816 48.26L83.8036 48.1522L84.0949 46.743L83.5842 48.0671L83.3269 47.9687L84.0476 46.0942L84.4581 46.2512L84.163 47.668Z" fill="#264758"/>
<path d="M87.7796 51.1731L87.6018 50.9139L89.2569 49.779L89.4347 50.0381L88.7254 50.5243L88.9278 50.8212L89.6371 50.3351L89.8263 50.5999L88.1712 51.7349L87.982 51.4701L88.6913 50.982L88.4927 50.6945L87.7796 51.1731Z" fill="#264758"/>
<path d="M90.006 50.931L90.1574 51.2071L88.3963 52.1737L88.245 51.8957L90.006 50.931Z" fill="#264758"/>
<path d="M89.7033 52.3269L89.8792 52.7336L89.2928 52.9852C88.9977 53.1119 88.767 53.0363 88.644 52.7525C88.521 52.4688 88.627 52.2475 88.9202 52.1207L89.8792 51.7084C90.1762 51.5798 90.4069 51.6554 90.5299 51.9392C90.6528 52.2229 90.5469 52.4442 90.2518 52.5709L90.0721 52.6485L89.9549 52.3742L90.144 52.2891C90.2745 52.2324 90.2991 52.1529 90.2613 52.0621C90.2235 51.9713 90.1459 51.9335 90.0135 51.9902L89.0185 52.4177C88.8861 52.4745 88.8634 52.5539 88.9032 52.6447C88.9429 52.7355 89.0166 52.7752 89.1472 52.7185L89.4876 52.5728L89.4309 52.4404L89.7033 52.3269Z" fill="#264758"/>
<path d="M88.9845 53.6057L88.8975 53.303L90.8306 52.7582L90.9158 53.0609L90.0873 53.2954L90.1856 53.6397L91.0122 53.407L91.0992 53.7154L89.168 54.2601L89.0809 53.9518L89.9094 53.7173L89.8111 53.373L88.9845 53.6057Z" fill="#264758"/>
<path d="M75.2234 47.0967L76.3772 48.9618" stroke="#264758" stroke-miterlimit="10"/>
<path d="M87.8231 47.6302L86.4933 49.4045" stroke="#264758" stroke-miterlimit="10"/>
<path d="M87.2462 52.6371L82.4662 53.5773L83.8376 56.1176L87.2462 52.6371Z" fill="#264758" stroke="#264758" stroke-miterlimit="10"/>
<path d="M46.9312 92.0707H45.4709V92.5568H46.9312V92.0707Z" fill="white" stroke="#264758" stroke-linecap="round" stroke-linejoin="round"/>
<path d="M48.8776 92.0707H47.4174V92.5568H48.8776V92.0707Z" fill="white" stroke="#264758" stroke-linecap="round" stroke-linejoin="round"/>
<path d="M50.8221 92.0707H49.3618V92.5568H50.8221V92.0707Z" fill="white" stroke="#264758" stroke-linecap="round" stroke-linejoin="round"/>
<path d="M52.7685 92.0707H51.3082V92.5568H52.7685V92.0707Z" fill="white" stroke="#264758" stroke-linecap="round" stroke-linejoin="round"/>
<path d="M54.7149 92.0707H53.2546V92.5568H54.7149V92.0707Z" fill="white" stroke="#264758" stroke-linecap="round" stroke-linejoin="round"/>
<path d="M56.6615 92.0707H55.2012V92.5568H56.6615V92.0707Z" fill="white" stroke="#264758" stroke-linecap="round" stroke-linejoin="round"/>
<path d="M58.6079 92.0707H57.1476V92.5568H58.6079V92.0707Z" fill="white" stroke="#264758" stroke-linecap="round" stroke-linejoin="round"/>
<path d="M60.5543 92.0707H59.094V92.5568H60.5543V92.0707Z" fill="white" stroke="#264758" stroke-linecap="round" stroke-linejoin="round"/>
<path d="M62.5007 92.0707H61.0404V92.5568H62.5007V92.0707Z" fill="white" stroke="#264758" stroke-linecap="round" stroke-linejoin="round"/>
<path d="M64.4471 92.0707H62.9868V92.5568H64.4471V92.0707Z" fill="white" stroke="#264758" stroke-linecap="round" stroke-linejoin="round"/>
<path d="M66.3935 92.0707H64.9332V92.5568H66.3935V92.0707Z" fill="white" stroke="#264758" stroke-linecap="round" stroke-linejoin="round"/>
<path d="M68.3399 92.0707H66.8796V92.5568H68.3399V92.0707Z" fill="white" stroke="#264758" stroke-linecap="round" stroke-linejoin="round"/>
<path d="M70.2863 92.0707H68.826V92.5568H70.2863V92.0707Z" fill="white" stroke="#264758" stroke-linecap="round" stroke-linejoin="round"/>
<path d="M72.2327 92.0707H70.7725V92.5568H72.2327V92.0707Z" fill="white" stroke="#264758" stroke-linecap="round" stroke-linejoin="round"/>
<path d="M74.1773 92.0707H72.717V92.5568H74.1773V92.0707Z" fill="white" stroke="#264758" stroke-linecap="round" stroke-linejoin="round"/>
<path d="M76.1237 92.0707H74.6635V92.5568H76.1237V92.0707Z" fill="white" stroke="#264758" stroke-linecap="round" stroke-linejoin="round"/>
<path d="M78.0702 92.0707H76.6099V92.5568H78.0702V92.0707Z" fill="white" stroke="#264758" stroke-linecap="round" stroke-linejoin="round"/>
<path d="M80.0166 92.0707H78.5563V92.5568H80.0166V92.0707Z" fill="white" stroke="#264758" stroke-linecap="round" stroke-linejoin="round"/>
<path d="M81.963 92.0707H80.5027V92.5568H81.963V92.0707Z" fill="white" stroke="#264758" stroke-linecap="round" stroke-linejoin="round"/>
<path d="M83.9095 92.0707H82.4492V92.5568H83.9095V92.0707Z" fill="white" stroke="#264758" stroke-linecap="round" stroke-linejoin="round"/>
<path d="M85.8559 92.0707H84.3956V92.5568H85.8559V92.0707Z" fill="white" stroke="#264758" stroke-linecap="round" stroke-linejoin="round"/>
<path d="M86.9171 92.6268H44.7162V94.2006H86.9171V92.6268Z" fill="white" stroke="#264758" stroke-linecap="round" stroke-linejoin="round"/>
<path d="M86.9171 92.6268H76.6232V94.2006H86.9171V92.6268Z" fill="#264758" stroke="#264758" stroke-linecap="round" stroke-linejoin="round"/>
<path d="M106.44 86.1463C106.44 86.1463 101.427 77.3448 102.585 75.1071C103.743 72.8693 106.695 76.8965 106.695 76.8965C106.695 76.8965 104.127 68.6928 105.54 65.1139C106.953 61.5351 109.395 65.1139 109.523 67.6486C109.652 70.1833 109.009 74.5112 109.009 74.5112C109.009 74.5112 110.036 65.5603 112.478 68.2464C114.92 70.9324 109.395 79.8814 109.395 79.8814C109.395 79.8814 113.121 77.8007 112.989 80.4772C112.856 83.1538 108.49 85.5485 108.49 85.5485" fill="white"/>
<path d="M106.482 84.5044C106.482 84.5044 101.845 80.1784 104.104 78.2395C106.362 76.3007 107.552 80.3203 107.552 80.3203C107.552 80.3203 105.055 67.9399 109.098 67.4916C113.14 67.0433 110.168 78.232 110.168 78.232C110.168 78.232 113.617 73.4595 113.384 77.3373C113.151 81.215 108.033 84.4968 108.033 84.4968" stroke="#264758" stroke-miterlimit="10"/>
<path d="M108.759 83.7175L105.625 80.3221" stroke="#264758" stroke-miterlimit="10"/>
<path d="M108.106 83.9785L108.956 74.0535" stroke="#264758" stroke-miterlimit="10"/>
<path d="M107.976 83.2598L110.783 79.5391" stroke="#264758" stroke-miterlimit="10"/>
<path d="M111.564 94.2006L112.037 82.5674H103.368L103.841 94.2006H111.564Z" fill="#264758"/>
<path d="M115.164 94.2006H32.124" stroke="#264758" stroke-miterlimit="10"/>
</svg>
