<svg width="205" height="61" viewBox="0 0 205 61" fill="none" xmlns="http://www.w3.org/2000/svg">
<path d="M0 20C0 8.95431 8.9543 0 20 0H205V41C205 52.0457 196.046 61 185 61H0V20Z" fill="#E57949"/>
<path d="M41.28 29.82H48.24V31.96H41.28V29.82ZM41.48 35.82H49.38V38H38.88V24H49.1V26.18H41.48V35.82ZM50.4027 38L55.1027 31.88L55.0627 33.22L50.5827 27.32H53.3627L56.5027 31.52H55.4427L58.6027 27.32H61.3027L56.7827 33.22L56.8027 31.88L61.4827 38H58.6627L55.3627 33.54L56.4027 33.68L53.1627 38H50.4027ZM69.2475 38.14C68.3808 38.14 67.5875 37.94 66.8675 37.54C66.1608 37.14 65.5942 36.54 65.1675 35.74C64.7542 34.9267 64.5475 33.9 64.5475 32.66C64.5475 31.4067 64.7475 30.38 65.1475 29.58C65.5608 28.78 66.1208 28.1867 66.8275 27.8C67.5342 27.4 68.3408 27.2 69.2475 27.2C70.3008 27.2 71.2275 27.4267 72.0275 27.88C72.8408 28.3333 73.4808 28.9667 73.9475 29.78C74.4275 30.5933 74.6675 31.5533 74.6675 32.66C74.6675 33.7667 74.4275 34.7333 73.9475 35.56C73.4808 36.3733 72.8408 37.0067 72.0275 37.46C71.2275 37.9133 70.3008 38.14 69.2475 38.14ZM63.3275 41.88V27.32H65.7075V29.84L65.6275 32.68L65.8275 35.52V41.88H63.3275ZM68.9675 36C69.5675 36 70.1008 35.8667 70.5675 35.6C71.0475 35.3333 71.4275 34.9467 71.7075 34.44C71.9875 33.9333 72.1275 33.34 72.1275 32.66C72.1275 31.9667 71.9875 31.3733 71.7075 30.88C71.4275 30.3733 71.0475 29.9867 70.5675 29.72C70.1008 29.4533 69.5675 29.32 68.9675 29.32C68.3675 29.32 67.8275 29.4533 67.3475 29.72C66.8675 29.9867 66.4875 30.3733 66.2075 30.88C65.9275 31.3733 65.7875 31.9667 65.7875 32.66C65.7875 33.34 65.9275 33.9333 66.2075 34.44C66.4875 34.9467 66.8675 35.3333 67.3475 35.6C67.8275 35.8667 68.3675 36 68.9675 36ZM77.0384 38V23.16H79.5384V38H77.0384ZM87.6197 38.14C86.5264 38.14 85.553 37.9067 84.6997 37.44C83.8464 36.96 83.173 36.3067 82.6797 35.48C82.1864 34.6533 81.9397 33.7133 81.9397 32.66C81.9397 31.5933 82.1864 30.6533 82.6797 29.84C83.173 29.0133 83.8464 28.3667 84.6997 27.9C85.553 27.4333 86.5264 27.2 87.6197 27.2C88.7264 27.2 89.7064 27.4333 90.5597 27.9C91.4264 28.3667 92.0997 29.0067 92.5797 29.82C93.073 30.6333 93.3197 31.58 93.3197 32.66C93.3197 33.7133 93.073 34.6533 92.5797 35.48C92.0997 36.3067 91.4264 36.96 90.5597 37.44C89.7064 37.9067 88.7264 38.14 87.6197 38.14ZM87.6197 36C88.233 36 88.7797 35.8667 89.2597 35.6C89.7397 35.3333 90.113 34.9467 90.3797 34.44C90.6597 33.9333 90.7997 33.34 90.7997 32.66C90.7997 31.9667 90.6597 31.3733 90.3797 30.88C90.113 30.3733 89.7397 29.9867 89.2597 29.72C88.7797 29.4533 88.2397 29.32 87.6397 29.32C87.0264 29.32 86.4797 29.4533 85.9997 29.72C85.533 29.9867 85.1597 30.3733 84.8797 30.88C84.5997 31.3733 84.4597 31.9667 84.4597 32.66C84.4597 33.34 84.5997 33.9333 84.8797 34.44C85.1597 34.9467 85.533 35.3333 85.9997 35.6C86.4797 35.8667 87.0197 36 87.6197 36ZM95.7103 38V27.32H98.0903V30.26L97.8103 29.4C98.1303 28.68 98.6303 28.1333 99.3103 27.76C100.004 27.3867 100.864 27.2 101.89 27.2V29.58C101.784 29.5533 101.684 29.54 101.59 29.54C101.497 29.5267 101.404 29.52 101.31 29.52C100.364 29.52 99.6103 29.8 99.0503 30.36C98.4903 30.9067 98.2103 31.7267 98.2103 32.82V38H95.7103ZM108.933 38.14C107.747 38.14 106.707 37.9067 105.813 37.44C104.933 36.96 104.247 36.3067 103.753 35.48C103.273 34.6533 103.033 33.7133 103.033 32.66C103.033 31.5933 103.267 30.6533 103.733 29.84C104.213 29.0133 104.867 28.3667 105.693 27.9C106.533 27.4333 107.487 27.2 108.553 27.2C109.593 27.2 110.52 27.4267 111.333 27.88C112.147 28.3333 112.787 28.9733 113.253 29.8C113.72 30.6267 113.953 31.6 113.953 32.72C113.953 32.8267 113.947 32.9467 113.933 33.08C113.933 33.2133 113.927 33.34 113.913 33.46H105.013V31.8H112.593L111.613 32.32C111.627 31.7067 111.5 31.1667 111.233 30.7C110.967 30.2333 110.6 29.8667 110.133 29.6C109.68 29.3333 109.153 29.2 108.553 29.2C107.94 29.2 107.4 29.3333 106.933 29.6C106.48 29.8667 106.12 30.24 105.853 30.72C105.6 31.1867 105.473 31.74 105.473 32.38V32.78C105.473 33.42 105.62 33.9867 105.913 34.48C106.207 34.9733 106.62 35.3533 107.153 35.62C107.687 35.8867 108.3 36.02 108.993 36.02C109.593 36.02 110.133 35.9267 110.613 35.74C111.093 35.5533 111.52 35.26 111.893 34.86L113.233 36.4C112.753 36.96 112.147 37.3933 111.413 37.7C110.693 37.9933 109.867 38.14 108.933 38.14ZM122.122 38V24H124.262L133.042 34.78H131.982V24H134.562V38H132.422L123.642 27.22H124.702V38H122.122ZM142.874 38.14C141.78 38.14 140.807 37.9067 139.954 37.44C139.1 36.96 138.427 36.3067 137.934 35.48C137.44 34.6533 137.194 33.7133 137.194 32.66C137.194 31.5933 137.44 30.6533 137.934 29.84C138.427 29.0133 139.1 28.3667 139.954 27.9C140.807 27.4333 141.78 27.2 142.874 27.2C143.98 27.2 144.96 27.4333 145.814 27.9C146.68 28.3667 147.354 29.0067 147.834 29.82C148.327 30.6333 148.574 31.58 148.574 32.66C148.574 33.7133 148.327 34.6533 147.834 35.48C147.354 36.3067 146.68 36.96 145.814 37.44C144.96 37.9067 143.98 38.14 142.874 38.14ZM142.874 36C143.487 36 144.034 35.8667 144.514 35.6C144.994 35.3333 145.367 34.9467 145.634 34.44C145.914 33.9333 146.054 33.34 146.054 32.66C146.054 31.9667 145.914 31.3733 145.634 30.88C145.367 30.3733 144.994 29.9867 144.514 29.72C144.034 29.4533 143.494 29.32 142.894 29.32C142.28 29.32 141.734 29.4533 141.254 29.72C140.787 29.9867 140.414 30.3733 140.134 30.88C139.854 31.3733 139.714 31.9667 139.714 32.66C139.714 33.34 139.854 33.9333 140.134 34.44C140.414 34.9467 140.787 35.3333 141.254 35.6C141.734 35.8667 142.274 36 142.874 36ZM153.031 38L149.111 27.32H151.471L154.831 36.74H153.711L157.231 27.32H159.331L162.751 36.74H161.651L165.111 27.32H167.331L163.391 38H160.991L157.871 29.66H158.611L155.431 38H153.031Z" fill="white"/>
</svg>
