<svg width="205" height="61" viewBox="0 0 205 61" fill="none" xmlns="http://www.w3.org/2000/svg">
<path d="M0 20C0 8.95431 8.9543 0 20 0H185C196.046 0 205 8.95431 205 20V61H20C8.95431 61 0 52.0457 0 41V20Z" fill="#E57949"/>
<path d="M57.88 38V24H60.48V35.8H67.8V38H57.88ZM74.535 38.14C73.3483 38.14 72.3083 37.9067 71.415 37.44C70.535 36.96 69.8483 36.3067 69.355 35.48C68.875 34.6533 68.635 33.7133 68.635 32.66C68.635 31.5933 68.8683 30.6533 69.335 29.84C69.815 29.0133 70.4683 28.3667 71.295 27.9C72.135 27.4333 73.0883 27.2 74.155 27.2C75.195 27.2 76.1217 27.4267 76.935 27.88C77.7483 28.3333 78.3883 28.9733 78.855 29.8C79.3217 30.6267 79.555 31.6 79.555 32.72C79.555 32.8267 79.5483 32.9467 79.535 33.08C79.535 33.2133 79.5283 33.34 79.515 33.46H70.615V31.8H78.195L77.215 32.32C77.2283 31.7067 77.1017 31.1667 76.835 30.7C76.5683 30.2333 76.2017 29.8667 75.735 29.6C75.2817 29.3333 74.755 29.2 74.155 29.2C73.5417 29.2 73.0017 29.3333 72.535 29.6C72.0817 29.8667 71.7217 30.24 71.455 30.72C71.2017 31.1867 71.075 31.74 71.075 32.38V32.78C71.075 33.42 71.2217 33.9867 71.515 34.48C71.8083 34.9733 72.2217 35.3533 72.755 35.62C73.2883 35.8867 73.9017 36.02 74.595 36.02C75.195 36.02 75.735 35.9267 76.215 35.74C76.695 35.5533 77.1217 35.26 77.495 34.86L78.835 36.4C78.355 36.96 77.7483 37.3933 77.015 37.7C76.295 37.9933 75.4683 38.14 74.535 38.14ZM85.9764 38.14C84.8031 38.14 83.8964 37.84 83.2564 37.24C82.6164 36.6267 82.2964 35.7267 82.2964 34.54V24.96H84.7964V34.48C84.7964 34.9867 84.9231 35.38 85.1764 35.66C85.4431 35.94 85.8097 36.08 86.2764 36.08C86.8364 36.08 87.3031 35.9333 87.6764 35.64L88.3764 37.42C88.0831 37.66 87.7231 37.84 87.2964 37.96C86.8697 38.08 86.4297 38.14 85.9764 38.14ZM80.5364 29.4V27.4H87.6564V29.4H80.5364ZM93.733 38.14C92.8396 38.14 91.9796 38.0267 91.153 37.8C90.3396 37.56 89.693 37.2733 89.213 36.94L90.173 35.04C90.653 35.3467 91.2263 35.6 91.893 35.8C92.5596 36 93.2263 36.1 93.893 36.1C94.6796 36.1 95.2463 35.9933 95.593 35.78C95.953 35.5667 96.133 35.28 96.133 34.92C96.133 34.6267 96.013 34.4067 95.773 34.26C95.533 34.1 95.2196 33.98 94.833 33.9C94.4463 33.82 94.013 33.7467 93.533 33.68C93.0663 33.6133 92.593 33.5267 92.113 33.42C91.6463 33.3 91.2196 33.1333 90.833 32.92C90.4463 32.6933 90.133 32.3933 89.893 32.02C89.653 31.6467 89.533 31.1533 89.533 30.54C89.533 29.86 89.7263 29.2733 90.113 28.78C90.4996 28.2733 91.0396 27.8867 91.733 27.62C92.4396 27.34 93.273 27.2 94.233 27.2C94.953 27.2 95.6796 27.28 96.413 27.44C97.1463 27.6 97.753 27.8267 98.233 28.12L97.273 30.02C96.7663 29.7133 96.253 29.5067 95.733 29.4C95.2263 29.28 94.7196 29.22 94.213 29.22C93.453 29.22 92.8863 29.3333 92.513 29.56C92.153 29.7867 91.973 30.0733 91.973 30.42C91.973 30.74 92.093 30.98 92.333 31.14C92.573 31.3 92.8863 31.4267 93.273 31.52C93.6596 31.6133 94.0863 31.6933 94.553 31.76C95.033 31.8133 95.5063 31.9 95.973 32.02C96.4396 32.14 96.8663 32.3067 97.253 32.52C97.653 32.72 97.973 33.0067 98.213 33.38C98.453 33.7533 98.573 34.24 98.573 34.84C98.573 35.5067 98.373 36.0867 97.973 36.58C97.5863 37.0733 97.033 37.46 96.313 37.74C95.593 38.0067 94.733 38.14 93.733 38.14ZM109.333 38V26.2H104.693V24H116.573V26.2H111.933V38H109.333ZM118.031 38V27.32H120.411V30.26L120.131 29.4C120.451 28.68 120.951 28.1333 121.631 27.76C122.324 27.3867 123.184 27.2 124.211 27.2V29.58C124.104 29.5533 124.004 29.54 123.911 29.54C123.817 29.5267 123.724 29.52 123.631 29.52C122.684 29.52 121.931 29.8 121.371 30.36C120.811 30.9067 120.531 31.7267 120.531 32.82V38H118.031ZM127.602 42.02C127.082 42.02 126.562 41.9333 126.042 41.76C125.522 41.5867 125.089 41.3467 124.742 41.04L125.742 39.2C125.995 39.4267 126.282 39.6067 126.602 39.74C126.922 39.8733 127.249 39.94 127.582 39.94C128.035 39.94 128.402 39.8267 128.682 39.6C128.962 39.3733 129.222 38.9933 129.462 38.46L130.082 37.06L130.282 36.76L134.322 27.32H136.722L131.722 38.86C131.389 39.66 131.015 40.2933 130.602 40.76C130.202 41.2267 129.749 41.5533 129.242 41.74C128.749 41.9267 128.202 42.02 127.602 42.02ZM129.802 38.38L124.982 27.32H127.582L131.502 36.54L129.802 38.38ZM143.972 33.36L143.492 24H146.452L145.952 33.36H143.972ZM144.972 38.14C144.505 38.14 144.119 37.9867 143.812 37.68C143.505 37.3733 143.352 37.0067 143.352 36.58C143.352 36.1533 143.505 35.7933 143.812 35.5C144.119 35.1933 144.505 35.04 144.972 35.04C145.439 35.04 145.819 35.1933 146.112 35.5C146.405 35.7933 146.552 36.1533 146.552 36.58C146.552 37.0067 146.405 37.3733 146.112 37.68C145.819 37.9867 145.439 38.14 144.972 38.14Z" fill="white"/>
</svg>
